<?xml version="1.0" standalone="no"?>
<!DOCTYPE svg PUBLIC "-//W3C//DTD SVG 20010904//EN"
 "http://www.w3.org/TR/2001/REC-SVG-20010904/DTD/svg10.dtd">
<svg version="1.0" xmlns="http://www.w3.org/2000/svg"
 width="684.000000pt" height="684.000000pt" viewBox="0 0 684.000000 684.000000"
 preserveAspectRatio="xMidYMid meet">
<metadata>
Created by potrace 1.11, written by Peter Selinger 2001-2013
</metadata>
<g transform="translate(0.000000,684.000000) scale(0.100000,-0.100000)"
fill="#000000" stroke="none">
<path d="M3369 6396 c-2 -2 -20 -7 -39 -10 -19 -3 -82 -15 -140 -27 -58 -11
-116 -23 -130 -25 -14 -3 -36 -7 -50 -10 -14 -3 -38 -7 -55 -10 -26 -5 -120
-24 -190 -40 -11 -2 -31 -6 -45 -9 -64 -12 -299 -74 -328 -86 l-33 -14 36 -39
c55 -60 88 -113 128 -206 43 -101 88 -252 102 -345 2 -11 4 -20 5 -20 1 0 3
-9 5 -20 1 -11 6 -36 9 -55 11 -56 15 -80 26 -170 5 -47 12 -96 14 -110 4 -22
10 -88 22 -245 16 -204 22 -894 11 -1140 -3 -55 -5 -113 -6 -129 -1 -34 5 -35
-180 28 -73 25 -143 48 -155 50 -11 3 -31 7 -43 10 -13 4 -33 8 -44 11 -12 2
-36 9 -53 14 -28 9 -129 31 -166 37 -51 7 -98 15 -120 20 -14 3 -50 8 -80 10
-30 2 -71 6 -90 10 -50 8 -273 8 -355 0 -221 -23 -550 -152 -768 -301 -110
-75 -238 -192 -312 -285 -59 -75 -145 -213 -145 -234 0 -8 -4 -16 -9 -18 -12
-4 -67 -159 -87 -243 -15 -68 -20 -92 -29 -165 -6 -47 -6 -243 0 -305 6 -64
34 -212 45 -245 5 -14 11 -36 14 -50 4 -23 27 -94 43 -130 3 -8 7 -19 8 -25
15 -61 130 -275 216 -400 30 -43 59 -84 64 -93 64 -95 277 -300 430 -415 136
-101 339 -204 520 -262 381 -124 785 -117 1180 18 l71 24 -1 -111 0 -111 258
-2 c257 -1 257 -1 258 20 1 30 7 157 14 307 12 252 1 437 -32 520 -3 8 -7 21
-9 29 -5 27 -73 157 -94 181 -69 81 -91 100 -109 100 -12 0 -21 -4 -21 -8 0
-7 -87 -95 -164 -167 -89 -83 -253 -191 -374 -247 -48 -22 -94 -42 -102 -44
-8 -2 -58 -16 -110 -30 -75 -20 -122 -26 -224 -28 -70 -2 -145 1 -165 6 -163
37 -219 55 -307 99 -145 72 -290 188 -373 299 -14 19 -29 37 -32 40 -28 22
-149 252 -149 282 0 8 -3 18 -7 22 -4 3 -8 12 -9 19 -2 7 -6 23 -9 37 -30 116
-39 284 -19 370 7 30 12 55 12 55 0 0 5 20 12 45 29 109 119 250 219 342 54
51 205 168 215 168 4 0 23 11 44 23 42 27 153 73 197 82 133 27 285 11 395
-42 30 -14 58 -27 62 -27 22 -3 197 -139 268 -209 176 -172 245 -256 601 -727
35 -47 67 -89 71 -95 14 -20 288 -365 310 -391 94 -110 307 -329 408 -420 58
-52 307 -238 320 -239 3 -1 21 -11 40 -23 98 -62 350 -169 440 -186 14 -3 57
-12 95 -20 103 -22 175 -29 320 -30 204 -1 346 15 570 65 28 6 55 12 60 14 6
1 15 4 20 5 23 5 183 63 215 77 106 47 185 87 188 94 2 5 8 9 13 9 13 0 130
77 203 134 75 58 179 158 247 238 30 35 60 69 67 76 6 7 12 17 12 21 0 4 8 16
18 27 76 87 204 341 227 454 1 3 9 39 18 80 20 88 28 161 29 250 1 72 -10 219
-18 231 -2 4 -6 20 -8 36 -14 93 -53 204 -117 338 -42 88 -113 208 -144 242
-5 6 -21 26 -35 45 -121 160 -351 359 -535 461 -84 46 -234 117 -248 117 -7 0
-17 4 -22 9 -9 7 -132 51 -160 57 -5 1 -37 9 -70 17 -56 15 -96 23 -155 32
-14 2 -45 7 -70 11 -61 10 -403 10 -465 0 -47 -7 -169 -32 -207 -42 -10 -2
-28 -7 -40 -10 -31 -7 -39 -10 -63 -18 -101 -37 -95 -36 -96 -13 -2 91 6 582
10 582 1 0 3 52 6 116 2 63 6 138 9 165 3 27 8 83 12 124 3 41 7 89 9 105 3
36 16 144 20 165 1 8 6 35 10 60 14 94 16 106 26 150 6 25 12 52 14 60 34 156
92 293 148 351 19 20 51 42 72 49 35 12 36 13 18 29 -14 13 -83 41 -113 47 -3
0 -12 3 -20 6 -15 6 -87 25 -125 33 -11 2 -51 11 -90 20 -125 28 -357 76 -490
100 -44 8 -93 17 -109 20 -23 5 -27 3 -22 -10 6 -17 51 -199 61 -250 21 -104
48 -270 60 -360 4 -27 8 -61 10 -75 2 -14 6 -61 10 -105 3 -44 8 -100 10 -125
15 -153 20 -318 20 -650 -1 -406 -9 -607 -40 -945 -2 -16 -6 -66 -10 -110 -3
-44 -10 -95 -15 -113 -6 -22 -5 -30 2 -26 6 4 8 3 5 -3 -7 -12 -14 -47 -23
-128 -3 -33 -8 -63 -11 -67 -2 -5 2 -8 11 -8 8 0 16 4 18 9 4 12 257 181 271
181 6 0 18 6 26 13 21 18 204 97 238 103 15 3 31 8 37 12 6 3 16 7 21 8 6 2
35 8 65 14 112 23 252 30 350 16 66 -10 217 -59 268 -88 58 -32 107 -61 112
-68 3 -3 15 -13 28 -22 28 -19 106 -93 147 -139 121 -136 238 -375 271 -554 2
-11 8 -42 13 -69 16 -85 11 -277 -10 -370 -24 -107 -43 -155 -92 -233 -39 -63
-149 -173 -173 -173 -7 0 -14 -4 -16 -8 -4 -13 -126 -59 -172 -66 -21 -4 -41
-8 -45 -10 -9 -6 -207 -19 -281 -19 -63 0 -157 10 -170 18 -4 2 -22 7 -40 10
-42 7 -163 59 -200 85 -15 11 -31 20 -35 20 -9 0 -118 78 -170 121 -61 52
-204 197 -265 269 -30 35 -61 71 -68 78 -7 8 -25 30 -40 50 -15 21 -33 43 -39
50 -22 23 -159 234 -213 327 -68 118 -67 118 -122 202 -27 40 -48 75 -48 78 0
3 -8 14 -17 24 -10 11 -34 41 -53 67 -42 58 -64 84 -159 189 -36 40 -36 42
-26 240 1 33 6 119 9 190 4 72 9 173 11 225 4 99 12 256 20 425 3 55 7 154 10
220 2 66 7 161 9 210 3 50 8 151 11 225 3 74 8 176 10 225 11 211 19 377 30
625 9 226 16 345 20 348 2 2 0 14 -5 27 -5 13 -6 26 -3 29 7 7 8 18 17 234 4
83 5 152 3 152 -2 0 -6 -2 -8 -4z"/>
</g>
</svg>
