<?xml version="1.0" encoding="UTF-8" standalone="no"?>
<svg
   xmlns:dc="http://purl.org/dc/elements/1.1/"
   xmlns:cc="http://creativecommons.org/ns#"
   xmlns:rdf="http://www.w3.org/1999/02/22-rdf-syntax-ns#"
   xmlns:svg="http://www.w3.org/2000/svg"
   xmlns="http://www.w3.org/2000/svg"
   xmlns:sodipodi="http://sodipodi.sourceforge.net/DTD/sodipodi-0.dtd"
   xmlns:inkscape="http://www.inkscape.org/namespaces/inkscape"
   width="450"
   height="450"
   viewBox="0 0 450 450"
   version="1.1"
   id="svg8"
   sodipodi:docname="dbptk_logo_white_vector.svg"
   inkscape:version="0.92.4 (f8dce91, 2019-08-02)">
  <metadata
     id="metadata14">
    <rdf:RDF>
      <cc:Work
         rdf:about="">
        <dc:format>image/svg+xml</dc:format>
        <dc:type
           rdf:resource="http://purl.org/dc/dcmitype/StillImage" />
        <dc:title></dc:title>
      </cc:Work>
    </rdf:RDF>
  </metadata>
  <defs
     id="defs12" />
  <sodipodi:namedview
     pagecolor="#ffffff"
     bordercolor="#666666"
     borderopacity="1"
     objecttolerance="10"
     gridtolerance="10"
     guidetolerance="10"
     inkscape:pageopacity="0"
     inkscape:pageshadow="2"
     inkscape:window-width="1920"
     inkscape:window-height="1020"
     id="namedview10"
     showgrid="false"
     inkscape:pagecheckerboard="true"
     inkscape:zoom="1.03"
     inkscape:cx="403.7233"
     inkscape:cy="187.5"
     inkscape:window-x="0"
     inkscape:window-y="28"
     inkscape:window-maximized="1"
     inkscape:current-layer="svg8">
    <inkscape:grid
       type="xygrid"
       id="grid3719" />
  </sodipodi:namedview>
  <path
     style="fill:#ffffff;fill-rule:nonzero"
     inkscape:connector-curvature="0"
     id="path2"
     d="m 175.42794,405.57412 c 0,-6.27658 -0.14419,-6.92588 -1.22562,-6.42087 -4.25362,1.58718 -16.07723,4.6894 -22.20532,5.84371 -5.33504,1.01003 -10.67008,1.29861 -20.54712,1.29861 -14.9958,0 -21.12389,-0.86574 -34.4615,-5.05012 C 31.598048,380.90067 -8.0543037,305.14887 18.188343,250.53542 28.642145,228.81991 48.900892,212.2988 77.090109,202.55928 c 12.832943,-4.40082 19.105221,-5.26656 34.533591,-4.83369 8.00257,0.21644 16.36561,0.93788 21.77275,1.87576 11.03056,1.87576 28.76598,6.42087 37.84997,9.66737 l 6.92114,2.52507 0.57676,-6.99803 c 0.79304,-10.96598 0.57676,-57.57137 -0.36048,-71.49527 -2.81171,-40.328819 -9.66075,-67.527329 -19.53779,-77.771859 -1.5861,-1.659325 -2.73962,-3.390795 -2.52333,-3.751518 0.21628,-0.360723 2.59542,-1.298602 5.26294,-2.092193 11.82361,-3.535084 58.82967,-13.058168 59.76691,-12.120289 0.28838,0.288579 -1.73028,48.04829 -4.3978,106.124669 l -4.90248,105.61967 6.27228,7.43089 c 8.14676,9.73951 12.47247,16.01609 20.11456,29.00212 11.03056,18.90188 19.68199,30.51715 32.51493,43.50318 11.39104,11.47098 21.48436,18.32472 32.44283,22.00409 4.61409,1.58718 6.20019,1.73147 18.0238,1.65933 9.58866,0 14.27484,-0.36072 17.9517,-1.2986 18.74475,-4.54511 29.48693,-20.27263 29.48693,-42.99817 -0.0721,-33.90795 -22.63789,-64.20868 -52.05272,-70.05239 -6.99324,-1.37074 -20.61923,-0.50501 -28.5497,1.80362 -8.72352,2.52506 -23.71931,10.10024 -32.08235,16.23253 -3.74895,2.74149 -6.92114,4.68939 -7.06533,4.32867 -0.14419,-0.36072 0.43257,-6.56515 1.22562,-13.77961 7.3537,-66.08444 5.55132,-126.97446 -4.90248,-168.674019 -1.15352,-4.54511 -2.01866,-8.36877 -1.94657,-8.44092 0.50467,-0.57716 35.54293,6.56516 49.09682,9.95595 13.84228,3.46294 17.73542,5.84371 12.112,7.2866 -11.96781,3.10222 -19.60989,40.112389 -20.90761,101.146699 -0.43257,21.78766 -0.43257,22.29268 0.93724,21.78766 3.53266,-1.44289 13.62599,-4.11224 19.75408,-5.26655 10.5259,-1.9479 31.00093,-1.73147 41.67102,0.36072 46.64558,9.30665 83.19784,42.42101 92.06555,83.47128 5.40713,24.6013 -1.5861,50.78978 -19.39361,72.93817 -23.9356,29.79571 -59.26224,44.65749 -102.80773,43.35889 -14.41904,-0.43287 -18.81685,-1.22646 -30.71255,-5.19441 -24.22398,-8.08019 -47.15025,-25.8999 -72.31147,-56.20063 -3.60476,-4.25653 -14.49113,-18.32472 -24.29608,-31.16645 -9.80494,-12.91388 -20.83551,-26.90993 -24.51236,-31.23861 -13.04923,-15.2225 -24.87284,-24.52915 -36.19178,-28.42496 -5.62343,-1.9479 -6.77695,-2.09219 -13.40971,-1.80362 -5.76761,0.28858 -8.43513,0.7936 -12.68875,2.38078 -7.497897,2.88578 -17.302842,9.66737 -24.51236,16.95397 -10.381707,10.46097 -14.419037,19.2626 -14.995798,32.97007 -0.432572,10.38882 1.369808,18.82974 6.055995,28.49711 11.895705,24.38487 35.110353,39.53523 60.559953,39.53523 20.25875,0 38.13835,-8.15234 56.45053,-25.68347 4.68619,-4.47296 8.43514,-7.50304 9.30028,-7.50304 1.94657,0 6.70485,5.55514 9.80494,11.54314 5.19086,9.8838 6.34438,19.55118 5.26295,45.30679 L 209.09639,412.5 h -16.87027 -16.79818 z" />
</svg>
