<?xml version="1.0" encoding="utf-8"?>
<!-- Generator: Adobe Illustrator 26.3.1, SVG Export Plug-In . SVG Version: 6.00 Build 0)  -->
<svg version="1.1" id="Layer_1" xmlns="http://www.w3.org/2000/svg" xmlns:xlink="http://www.w3.org/1999/xlink" x="0px" y="0px"
	 viewBox="0 0 36.5 35" style="enable-background:new 0 0 36.5 35;" xml:space="preserve">
<style type="text/css">
	.st0{fill:#EDEDE5;}
</style>
<path class="st0" d="M33.9,17.3c0.2-0.3,0.3-0.6,0.3-1c0-0.1,0-0.1,0-0.2c-0.2,0-0.5-0.1-0.6-0.3c-0.2-0.2-0.3-0.5-0.2-0.7
	c-0.2-0.1-0.5-0.1-0.7-0.1c-0.2,0-0.5,0-0.7,0c0,0.6,0.2,1.2,0.6,1.6C32.8,16.9,33.3,17.2,33.9,17.3z"/>
<path class="st0" d="M28.5,15.2c0-0.3-0.1-0.6-0.3-0.9c-0.1-0.1-0.2-0.3-0.3-0.4L27.7,14c-1.2,0.7-2.6,1.1-4,1.3
	c-0.4,0-0.7,0-1.1-0.2c-0.6,0.3-1.2,0.5-1.9,0.6c0.3,0.2,0.7,0.4,1.1,0.6c0.6,0.2,1.3,0.3,2,0.3c1.6-0.1,3.1-0.5,4.5-1.3L28.5,15.2z
	"/>
<path class="st0" d="M35.4,13.7c-0.8-0.7-1.8-1.1-2.9-1c-0.5,0-1,0-1.5,0.2c0.3,0.4,0.5,0.9,0.6,1.3c0.3-0.1,0.7-0.1,1-0.1
	c0.7,0,1.3,0.2,1.8,0.6c0.4,0.4,0.6,1,0.6,1.6c0,0.8-0.4,1.7-1,2.3c-0.5,0.6-0.8,1.2-1.1,1.9c-1.4,0-2.7,0.5-3.8,1.5
	c-0.9,0.8-1.4,2-1.4,3.2h1.5c0-0.8,0.3-1.6,0.9-2.2c1.1-0.9,2.5-1.2,3.9-1c0.1-0.9,0.5-1.8,1.1-2.5c0.7-0.9,1.2-1.9,1.2-3.1
	C36.5,15.3,36.1,14.3,35.4,13.7z"/>
<path class="st0" d="M8.6,25.1c0-1.2-0.5-2.4-1.4-3.2c-1-0.9-2.4-1.4-3.8-1.5c-0.3-0.7-0.6-1.3-1.1-1.9c-0.6-0.6-0.9-1.4-0.9-2.3
	c0-0.6,0.2-1.2,0.6-1.6c0.5-0.4,1.2-0.6,1.8-0.6c0.3,0,0.7,0,1,0.1c0.1-0.5,0.3-0.9,0.6-1.3c-0.5-0.1-1-0.2-1.5-0.2
	c-1.1-0.1-2.1,0.3-2.9,1c-0.7,0.7-1,1.6-1,2.6c0,1.1,0.5,2.2,1.2,3.1c0.5,0.6,0.8,1.2,1,1.9l0.1,0.6H3c1.2-0.1,2.4,0.3,3.3,1.1
	c0.6,0.6,0.9,1.4,0.9,2.2L8.6,25.1z"/>
<path class="st0" d="M15.6,15.7c-0.7-0.1-1.4-0.3-2-0.7c-0.4,0.1-0.8,0.2-1.2,0.2c-1.3-0.1-2.7-0.5-3.8-1.2l-0.2-0.1
	c-0.1,0.1-0.2,0.2-0.3,0.4c-0.2,0.3-0.3,0.6-0.3,0.9L8,15.3c1.4,0.8,2.9,1.2,4.5,1.3c0.7,0,1.4-0.1,2-0.3
	C14.9,16.1,15.3,15.9,15.6,15.7z"/>
<polygon class="st0" points="7.8,32.6 8.6,32.6 8.6,30.5 8.6,28.4 7.8,28.4 7.1,28.4 7.1,30.5 7.1,32.6 "/>
<polygon class="st0" points="7.1,33.6 7.1,34.4 7.1,35 18.2,35 29.3,35 29.3,34.4 29.3,33.6 18.2,33.6 "/>
<polygon class="st0" points="11.5,30.5 11.5,29.1 10.8,29.1 10,29.1 10,30.5 10,31.9 10.8,31.9 11.5,31.9 "/>
<polygon class="st0" points="14.5,30.5 14.5,29.1 13.8,29.1 13,29.1 13,30.5 13,31.9 13.8,31.9 14.5,31.9 "/>
<polygon class="st0" points="17.5,30.5 17.5,28.4 16.7,28.4 16,28.4 16,30.5 16,32.6 16.7,32.6 17.5,32.6 "/>
<polygon class="st0" points="20.4,30.5 20.4,28.4 19.7,28.4 19,28.4 19,30.5 19,32.6 19.7,32.6 20.4,32.6 "/>
<polygon class="st0" points="23.4,30.5 23.4,29.1 22.7,29.1 21.9,29.1 21.9,30.5 21.9,31.9 22.7,31.9 23.4,31.9 "/>
<polygon class="st0" points="26.4,30.5 26.4,29.1 25.6,29.1 24.9,29.1 24.9,30.5 24.9,31.9 25.6,31.9 26.4,31.9 "/>
<polygon class="st0" points="27.9,28.4 27.9,30.5 27.9,32.6 28.6,32.6 29.3,32.6 29.3,30.5 29.3,28.4 28.6,28.4 "/>
<ellipse class="st0" cx="14.7" cy="4.2" rx="0.8" ry="0.8"/>
<ellipse class="st0" cx="18.2" cy="0.8" rx="0.8" ry="0.8"/>
<ellipse class="st0" cx="21.7" cy="4.2" rx="0.8" ry="0.8"/>
<polygon class="st0" points="7.1,26 7.1,26.8 7.1,27.4 18.2,27.4 29.3,27.4 29.3,26.8 29.3,26 18.2,26 "/>
<path class="st0" d="M15.2,8.7c-0.1,1.7,1.2,3,2.9,3.1c1.7,0.1,3-1.2,3.1-2.9c0-1.4-0.9-2.6-2.2-3l0,0c-0.1,0-0.2-0.1-0.2-0.3V4.8
	h1.4V3.6h-1.4V2.2h-1.2v1.4h-1.4v1.2h1.4v0.8c0,0.1-0.1,0.2-0.2,0.3l0,0C16.2,6.2,15.3,7.4,15.2,8.7z M18.2,7.1
	c0.9,0,1.6,0.7,1.6,1.6c0,0.9-0.7,1.6-1.6,1.6c-0.9,0-1.6-0.7-1.6-1.6C16.7,7.8,17.3,7.1,18.2,7.1L18.2,7.1z"/>
<path class="st0" d="M8.1,20.4c1.4,1.2,2.1,2.9,2,4.7h1.5c0.1-2.1-0.8-4.2-2.4-5.6c-0.7-0.7-1.2-1.4-1.7-2.2c-0.6-1-0.6-2.3,0-3.4
	c0.6-0.8,1.6-1.3,2.6-1.3c1.1,0,2.3,0.4,3.2,1.2c0.9,0.7,1.9,1.1,3,1.2c0.4,0,0.9-0.2,1.3-0.4v2c0,0.1-0.1,0.2-0.2,0.2l0,0
	c-0.4,0.1-0.9,0.3-1.2,0.6c-0.5,0.5-0.7,1.1-0.8,1.7c-1.3-0.1-2.5,1-2.5,2.3c0,0,0,0.1,0,0.1c0,1.3,1,2.4,2.2,2.6c1,0.2,1,0.6,1,1
	h1.5c0-1.2-0.9-2.2-2.1-2.3c-0.9-0.2-1.2-0.8-1.2-1.2c0-1.1,1.3-1.3,2.5-1.1c0-1.2,0.1-1.8,0.5-2.1c0.3-0.3,0.7-0.4,1.1-0.4
	c0.4,0,0.7,0.1,1,0.4c0.4,0.4,0.5,0.9,0.5,2.1c1.2-0.3,2.5,0,2.5,1.1c0,0.4-0.2,1-1.2,1.2c-1.2,0.1-2.1,1.1-2.1,2.3h1.5
	c0-0.3,0.1-0.8,1-1c1.3-0.1,2.3-1.2,2.3-2.6c0-1.3-1.1-2.4-2.5-2.4c0,0-0.1,0-0.1,0c-0.1-0.6-0.4-1.3-0.8-1.7
	c-0.3-0.3-0.7-0.5-1.2-0.6l0,0c-0.1,0-0.2-0.1-0.2-0.2v-2.1c0.4,0.3,0.8,0.4,1.2,0.4c1.1-0.1,2.1-0.5,3-1.2c0.9-0.7,2-1.1,3.1-1.2
	c1,0,2,0.4,2.6,1.3c0.6,1,0.6,2.3,0,3.4c-0.5,0.9-1,1.7-1.7,2.4c-1.5,1.4-2.3,3.4-2.3,5.5h1.5c0-1.7,0.7-3.4,2-4.6
	c0.7-0.8,1.4-1.7,1.9-2.7c0.4-0.8,0.6-1.7,0.6-2.5c0-0.8-0.2-1.6-0.7-2.2c-0.9-1.3-2.3-2-3.8-1.9c-1.4,0-2.8,0.5-4,1.4
	c-0.6,0.5-1.4,0.8-2.2,0.9c-0.9,0-1.2-0.5-1.2-1h-1.5c0,0.5-0.4,1-1.2,1c-0.8-0.1-1.6-0.4-2.2-0.9c-1.2-0.9-2.6-1.4-4-1.4
	c-1.5-0.1-3,0.7-3.8,1.9c-0.4,0.7-0.7,1.4-0.7,2.2c0,0.9,0.2,1.8,0.6,2.5C6.7,18.8,7.3,19.7,8.1,20.4z"/>
<path class="st0" d="M2.3,16c0,0.4,0.1,0.9,0.3,1.3c1.2-0.1,2.1-1.1,2.1-2.3c-0.5-0.1-0.9-0.1-1.4,0C3.3,15.5,2.9,16,2.3,16
	C2.3,16,2.3,16,2.3,16z"/>
</svg>
