<?xml version="1.0" encoding="UTF-8"?><svg xmlns="http://www.w3.org/2000/svg" viewBox="0 0 141.69 71.12"><defs><style>.cls-1{fill:#eeeee7;stroke-width:0px;}</style></defs><g id="Layer_1"><path class="cls-1" d="M33.91,40.16c.18-.33.27-.63.27-1.05,0-.06,0-.14-.01-.23-.26-.03-.47-.13-.62-.29-.16-.18-.24-.43-.24-.74-.2-.06-.43-.09-.69-.09-.23,0-.45.01-.67.04-.01.64.18,1.21.57,1.64.35.39.84.64,1.39.72Z"/><path class="cls-1" d="M28.58,38.09c-.03-.34-.13-.65-.31-.92-.09-.14-.2-.26-.32-.37-.05.02-.1.05-.15.07-1.25.59-2.63,1.28-4.03,1.28-.48,0-.83-.07-1.09-.18-.55.29-1.16.52-1.87.6.32.24.7.43,1.12.58.59.2,1.28.3,2.04.3,1.75,0,3.14-.66,4.49-1.3.04-.02.08-.04.12-.06Z"/><path class="cls-1" d="M35.49,36.54c-.7-.67-1.69-1.03-2.87-1.03-.55,0-1.06.06-1.55.15.25.42.44.87.57,1.35.31-.05.64-.08.98-.08.79,0,1.4.21,1.82.61.4.38.61.94.61,1.57,0,1-.41,1.56-.93,2.27-.39.53-.81,1.12-1.07,1.92-1.48.07-2.83.59-3.76,1.45-.9.83-1.37,1.94-1.37,3.21h1.48c0-.88.31-1.62.92-2.18.77-.71,1.94-1.16,3.93-1.04.08-1.1.66-1.96,1.08-2.54.56-.77,1.2-1.64,1.2-3.08,0-1.01-.37-1.93-1.04-2.58Z"/><path class="cls-1" d="M8.62,47.97c0-1.27-.47-2.37-1.37-3.21-.93-.86-2.28-1.38-3.76-1.45-.26-.8-.68-1.39-1.07-1.92-.52-.71-.93-1.28-.93-2.27,0-.63.21-1.19.61-1.57.42-.41,1.03-.61,1.82-.61.34,0,.67.03.98.08.12-.48.31-.93.57-1.35-.48-.1-1-.15-1.55-.15-1.18,0-2.17.36-2.87,1.03C.37,37.19,0,38.1,0,39.12c0,1.44.64,2.31,1.2,3.08.42.58.82,1.13.97,1.94l.11.61.64-.02c1.32-.04,2.52.34,3.29,1.06.61.57.92,1.3.92,2.18h1.48Z"/><path class="cls-1" d="M15.74,38.57c-.77-.09-1.41-.35-1.99-.66-.31.11-.71.15-1.17.15-1.41,0-2.59-.59-3.84-1.19-.05-.02-.1-.05-.15-.07-.12.11-.23.23-.32.37-.18.27-.28.58-.31.92.04.02.08.04.12.06,1.35.64,2.74,1.3,4.49,1.3.76,0,1.45-.1,2.04-.3.42-.14.8-.34,1.12-.58Z"/><polygon class="cls-1" points="7.88 55.53 8.62 55.53 8.62 53.41 8.62 51.29 7.88 51.29 7.13 51.29 7.13 53.41 7.13 55.53 7.88 55.53"/><polygon class="cls-1" points="7.13 56.52 7.13 57.25 7.13 57.91 18.27 57.91 29.4 57.91 29.4 57.25 29.4 56.52 18.27 56.52 7.13 56.52"/><polygon class="cls-1" points="11.59 53.41 11.59 52.02 10.85 52.02 10.1 52.02 10.1 53.41 10.1 54.8 10.85 54.8 11.59 54.8 11.59 53.41"/><polygon class="cls-1" points="14.56 53.41 14.56 52.02 13.82 52.02 13.07 52.02 13.07 53.41 13.07 54.8 13.82 54.8 14.56 54.8 14.56 53.41"/><polygon class="cls-1" points="17.53 53.41 17.53 51.29 16.78 51.29 16.04 51.29 16.04 53.41 16.04 55.53 16.78 55.53 17.53 55.53 17.53 53.41"/><polygon class="cls-1" points="20.5 53.41 20.5 51.29 19.75 51.29 19.01 51.29 19.01 53.41 19.01 55.53 19.75 55.53 20.5 55.53 20.5 53.41"/><polygon class="cls-1" points="23.47 53.41 23.47 52.02 22.72 52.02 21.98 52.02 21.98 53.41 21.98 54.8 22.72 54.8 23.47 54.8 23.47 53.41"/><polygon class="cls-1" points="26.43 53.41 26.43 52.02 25.69 52.02 24.95 52.02 24.95 53.41 24.95 54.8 25.69 54.8 26.43 54.8 26.43 53.41"/><polygon class="cls-1" points="27.92 51.29 27.92 53.41 27.92 55.53 28.66 55.53 29.4 55.53 29.4 53.41 29.4 51.29 28.66 51.29 27.92 51.29"/><ellipse class="cls-1" cx="14.75" cy="27.09" rx=".78" ry=".76"/><ellipse class="cls-1" cx="18.27" cy="23.65" rx=".78" ry=".76"/><ellipse class="cls-1" cx="21.78" cy="27.09" rx=".78" ry=".76"/><polygon class="cls-1" points="7.13 48.94 7.13 49.66 7.13 50.32 18.27 50.32 29.4 50.32 29.4 49.66 29.4 48.94 18.27 48.94 7.13 48.94"/><path class="cls-1" d="M15.3,31.58c0,1.6,1.33,2.91,2.97,2.91s2.97-1.3,2.97-2.91c0-1.32-.91-2.44-2.15-2.79h0c-.11-.03-.2-.13-.2-.26v-.84h1.38v-1.21h-1.38v-1.35h-1.24v1.35h-1.38v1.21h1.38v.84c0,.13-.08.22-.2.26h0c-1.24.35-2.15,1.47-2.15,2.79ZM18.27,30.01c.89,0,1.61.71,1.61,1.57s-.72,1.57-1.61,1.57-1.61-.71-1.61-1.57.72-1.57,1.61-1.57Z"/><path class="cls-1" d="M8.14,43.3c1.1,1.17,1.96,2.1,1.96,4.66h1.48c0-3.11-1.19-4.38-2.34-5.61-.59-.64-1.21-1.29-1.69-2.25-.62-1.22-.62-2.45-.02-3.38.53-.8,1.46-1.27,2.57-1.27,1.36,0,2.23.56,3.15,1.16.87.57,1.78,1.15,3.04,1.15.44,0,.86-.13,1.24-.33v2.01c0,.13-.08.22-.2.25h0c-.45.1-.85.29-1.18.62-.43.43-.75,1.06-.82,1.72-1.35-.07-2.56.98-2.56,2.4,0,.9.52,2.25,2.24,2.58.96.18,1.02.62,1.02.95h1.48c-.07-1.01-.57-1.97-2.12-2.3-.91-.2-1.15-.76-1.15-1.16,0-1.08,1.26-1.34,2.5-1.06-.05-1.24.08-1.77.46-2.14.26-.26.6-.38,1.05-.38s.79.12,1.05.38c.38.38.51.9.46,2.14,1.23-.28,2.5-.02,2.5,1.06,0,.4-.24.97-1.15,1.16-1.55.33-2.04,1.3-2.12,2.3h1.48c0-.33.06-.77,1.02-.95,1.72-.33,2.24-1.68,2.24-2.58,0-1.41-1.21-2.47-2.56-2.4-.07-.66-.38-1.3-.82-1.72-.33-.32-.73-.52-1.18-.62h0c-.11-.03-.2-.13-.2-.25v-2.12c.36.28.79.44,1.24.44,1.26,0,2.16-.59,3.04-1.15.92-.59,1.78-1.16,3.15-1.16,1.11,0,2.04.46,2.57,1.27.6.92.6,2.16-.02,3.38-.49.97-1.11,1.69-1.72,2.39-1.14,1.32-2.32,2.69-2.32,5.47h1.48c0-2.27.87-3.28,1.98-4.56.63-.73,1.34-1.55,1.91-2.68.43-.84.63-1.7.61-2.53-.02-.8-.25-1.57-.67-2.22-.8-1.23-2.2-1.93-3.83-1.93-1.82,0-3.02.78-3.98,1.4-.78.51-1.4.91-2.21.91-.86,0-1.24-.54-1.24-.99h-1.48c0,.46-.37.99-1.24.99-.81,0-1.42-.4-2.21-.91-.96-.62-2.16-1.4-3.98-1.4-1.63,0-3.02.7-3.83,1.93-.42.65-.66,1.41-.67,2.22-.02.84.19,1.69.61,2.53.57,1.14,1.29,1.9,1.92,2.58Z"/><path class="cls-1" d="M2.36,38.88c-.03.36.03.89.26,1.28,1.68-.35,2.06-1.34,2.13-2.29-.45-.14-1.06-.13-1.41-.05-.02.7-.46,1.05-.98,1.06Z"/><path class="cls-1" d="M52.99,53.66c-.06-.09-.13-.16-.22-.21-.09-.05-.19-.07-.29-.07h-1.94v4.52h-1.8v-11.95h4.26c.9,0,1.66.16,2.28.47.62.31,1.08.75,1.39,1.31.31.56.46,1.22.46,1.96,0,.86-.21,1.59-.62,2.19-.41.6-1.03,1.02-1.84,1.26l2.91,4.76h-2.05l-2.54-4.24ZM52.82,51.83c.86,0,1.49-.18,1.89-.55.4-.36.6-.89.6-1.58s-.2-1.25-.61-1.63c-.41-.38-1.04-.57-1.91-.57h-2.26v4.33h2.29Z"/><path class="cls-1" d="M58.74,48.94h1.74v8.96h-1.74v-8.96ZM60.5,45.96v1.81h-1.74v-1.81h1.74Z"/><path class="cls-1" d="M63.86,56.1c-.62-.32-1.11-.77-1.46-1.35-.35-.59-.53-1.27-.53-2.04s.18-1.44.54-2.01c.36-.57.85-1.01,1.47-1.31.62-.3,1.31-.45,2.08-.45h3.97v1.4h-.82c-.05,0-.09.02-.12.05s-.03.08-.02.13c.32.33.56.7.74,1.09.18.39.27.81.27,1.26,0,.7-.17,1.33-.51,1.89-.34.56-.81,1-1.42,1.32-.61.32-1.31.48-2.09.49-.78,0-1.48-.16-2.11-.47ZM62.61,59.4v-1.49h7.05v2.81h-1.59v-1.32h-5.47ZM64.7,50.7c-.35.21-.62.49-.8.85-.18.36-.27.76-.27,1.21s.09.85.27,1.21c.18.36.45.64.8.84.35.2.77.31,1.26.31s.91-.1,1.26-.31c.35-.21.61-.49.79-.84.18-.35.27-.76.27-1.21s-.09-.86-.27-1.21c-.18-.36-.44-.64-.79-.85-.35-.21-.76-.31-1.25-.31s-.91.1-1.26.31Z"/><path class="cls-1" d="M75.84,50.57c-.31-.24-.72-.36-1.24-.36-.32,0-.61.05-.86.15-.25.1-.45.24-.59.42-.14.18-.21.38-.21.61,0,.3.11.54.33.72.22.18.58.33,1.08.45l1.42.33c.82.19,1.44.49,1.84.88.4.4.61.91.61,1.54,0,.54-.15,1.02-.45,1.44-.3.42-.72.75-1.27.98-.54.24-1.17.35-1.88.35s-1.29-.11-1.82-.34c-.53-.22-.97-.55-1.32-.98-.34-.43-.57-.94-.69-1.54h1.77c.07.27.19.51.38.73.19.22.42.39.71.52.28.13.6.19.95.19.37,0,.7-.05.97-.16.27-.11.48-.26.63-.44.15-.19.22-.4.22-.63,0-.57-.42-.95-1.27-1.14l-1.52-.33c-.83-.18-1.44-.48-1.85-.9-.4-.42-.6-.95-.6-1.59,0-.53.14-.99.43-1.39.28-.4.68-.71,1.2-.93.51-.22,1.1-.33,1.77-.33s1.2.11,1.7.32c.49.22.9.52,1.21.92.31.4.52.86.63,1.4h-1.68c-.09-.37-.3-.67-.61-.9Z"/><path class="cls-1" d="M80.73,57.79c-.46-.21-.82-.51-1.09-.92-.27-.4-.4-.88-.4-1.44,0-.62.18-1.12.53-1.5.35-.38.77-.66,1.26-.83.49-.18,1.03-.32,1.63-.42l1.88-.34c.13-.02.23-.07.29-.15.07-.08.1-.18.1-.3v-.09c0-.3-.08-.57-.23-.81-.16-.23-.37-.42-.65-.55-.28-.13-.6-.2-.96-.2s-.69.06-.95.17c-.27.11-.48.27-.63.45-.15.19-.25.39-.3.61h-1.77c.1-.51.32-.96.66-1.37.34-.4.76-.71,1.28-.94.52-.23,1.09-.34,1.71-.34.57,0,1.13.09,1.66.26.54.18.99.5,1.37.96.38.46.56,1.1.56,1.91v5.95h-1.7v-.73c0-.05-.01-.09-.04-.12s-.06-.04-.1-.04c-.05,0-.09.02-.13.06-.15.16-.35.32-.6.48-.25.16-.54.29-.86.39-.32.1-.65.15-.98.15-.57,0-1.08-.1-1.54-.31ZM83.85,56.39c.35-.22.62-.51.81-.87.19-.35.28-.72.28-1.09v-.87l-2.09.41c-.56.12-1.01.28-1.37.5-.36.22-.53.54-.53.98,0,.27.07.5.22.7.15.19.35.34.6.43.25.1.54.15.87.15.46,0,.87-.11,1.22-.34Z"/><path class="cls-1" d="M90.16,48.94v.91s.01.08.04.11c.03.03.06.04.1.04.05,0,.09-.02.13-.06.26-.29.58-.53.94-.72.36-.19.76-.29,1.21-.29h.69v1.4h-.71c-.43,0-.82.1-1.18.29-.36.19-.64.46-.85.79s-.32.7-.32,1.1v5.38h-1.74v-8.96h1.69Z"/><path class="cls-1" d="M97.02,54c-.07,0-.12.03-.18.08l-.68.65v3.19h-1.74v-11.95h1.74v6.49c0,.05.02.1.05.13.03.03.07.05.12.05.05,0,.1-.02.13-.06l3.42-3.62h2.09l-3.64,3.85,3.88,5.11h-2.14l-2.88-3.8c-.05-.07-.11-.11-.19-.11Z"/><path class="cls-1" d="M103.11,48.94h1.74v8.96h-1.74v-8.96ZM104.86,45.96v1.81h-1.74v-1.81h1.74Z"/><path class="cls-1" d="M109.13,57.91l-3.26-8.96h1.87l2.17,6.59s.03.06.06.08c.03.02.06.03.09.03s.06,0,.08-.03c.03-.02.04-.05.06-.08l2.17-6.59h1.87l-3.25,8.96h-1.87Z"/><path class="cls-1" d="M120.57,49.3c.62.32,1.11.81,1.49,1.49.38.67.57,1.53.57,2.56v.67h-6.5c.02.55.14,1.03.35,1.43.22.4.51.7.88.9.37.2.81.3,1.3.3s.94-.11,1.3-.33c.36-.22.61-.53.77-.95h1.76c-.15.56-.4,1.04-.76,1.45-.36.41-.8.72-1.33.94-.53.22-1.11.33-1.76.33-.87,0-1.63-.19-2.27-.57s-1.13-.92-1.48-1.61-.52-1.5-.52-2.42.17-1.72.52-2.42c.35-.7.84-1.25,1.47-1.65.63-.39,1.36-.59,2.18-.59.72,0,1.39.16,2,.47ZM120.61,51.45c-.2-.37-.48-.66-.83-.87-.36-.21-.76-.32-1.2-.32s-.82.1-1.16.29c-.35.19-.63.45-.85.78s-.36.68-.41,1.08c-.01.07,0,.14.06.19.05.05.11.08.19.08h4.52c0-.45-.1-.86-.3-1.23Z"/><path class="cls-1" d="M128.14,50.34v-1.4h-2.05v-2.15h-1.74v1.73c0,.11-.04.21-.11.29-.07.08-.17.12-.27.12h-.93v1.4h1.31v7.56h3.79v-1.49h-2.05v-6.07h2.05Z"/><text/></g><g id="Layer_2"><path class="cls-1" d="M48.55,64.52h4.06v.77h-1.57v4.32h-.91v-4.32h-1.57v-.77Z"/><path class="cls-1" d="M53.35,65.79h.9v3.82h-.9v-3.82ZM54.25,64.53v.74h-.89v-.74s.89,0,.89,0Z"/><path class="cls-1" d="M56.08,69.61h-.9v-5.09h.9v5.09Z"/><path class="cls-1" d="M60.46,69.56c0,.32-.08.59-.23.83-.15.24-.37.42-.64.54-.27.13-.58.19-.93.19-.31,0-.59-.05-.84-.16-.25-.11-.45-.25-.61-.43-.16-.18-.25-.37-.29-.57h.9c.05.13.14.25.28.34.14.09.33.14.58.14.17,0,.33-.03.46-.1s.24-.17.32-.3c.08-.13.11-.29.11-.47v-.39s0-.04-.02-.05c-.01-.01-.03-.02-.04-.02-.02,0-.04,0-.05.02-.12.13-.26.24-.44.32s-.37.12-.58.12c-.3,0-.58-.08-.82-.23-.24-.15-.43-.37-.56-.66-.13-.29-.2-.64-.2-1.04s.07-.76.21-1.05c.14-.29.32-.5.56-.65.24-.14.5-.22.8-.22.22,0,.42.04.59.12.17.08.32.2.44.34.02.02.04.03.06.03.02,0,.04,0,.05-.02.01-.01.02-.03.02-.05v-.38h.88v3.77ZM59.16,68.71c.13-.09.24-.23.31-.41.07-.18.1-.39.1-.63,0-.25-.03-.46-.1-.64-.07-.18-.17-.31-.31-.41-.13-.09-.3-.14-.49-.14s-.36.05-.49.15c-.14.1-.24.23-.31.41-.07.18-.1.39-.1.63,0,.24.04.45.1.63s.17.31.31.41c.14.1.3.15.5.15s.35-.05.49-.14Z"/><path class="cls-1" d="M64.38,67.97c0,.21.05.39.13.54.08.15.2.27.34.35s.31.12.5.12.37-.04.51-.13c.14-.08.24-.21.3-.37h.87c-.05.23-.15.44-.31.62-.15.18-.35.32-.58.42-.23.1-.49.15-.76.15s-.55-.05-.78-.15c-.23-.1-.41-.24-.55-.42-.03-.04-.06-.05-.09-.05-.04,0-.07.02-.09.06-.08.12-.2.22-.34.3s-.3.15-.48.2c-.18.05-.36.07-.54.07-.26,0-.49-.04-.69-.13-.2-.09-.35-.22-.46-.39-.11-.17-.17-.38-.17-.62,0-.27.07-.49.2-.65.13-.16.3-.28.51-.36.21-.08.46-.13.74-.16.39-.04.65-.07.79-.1.05,0,.09-.03.12-.06s.04-.08.04-.13v-.06c0-.19-.06-.33-.17-.44-.11-.1-.27-.15-.48-.15s-.38.04-.51.13c-.13.09-.22.21-.27.35h-.89c.06-.26.17-.48.33-.66.16-.17.35-.3.58-.39.23-.08.49-.13.77-.13.21,0,.41.03.6.09.19.06.34.17.46.32.02.03.05.05.09.05.03,0,.06-.01.08-.04.28-.29.65-.43,1.1-.43.32,0,.62.07.88.21.26.14.47.35.63.64s.23.65.23,1.08v.28h-2.66v.03ZM62.77,67.98c-.22.03-.39.09-.52.17-.12.08-.19.21-.19.37s.06.28.18.37c.12.09.27.13.47.13.18,0,.33-.04.46-.11s.24-.17.31-.29.11-.25.11-.39v-.38l-.83.11ZM64.87,66.55c-.13.07-.23.16-.32.28-.08.12-.14.25-.16.4,0,.03,0,.06.02.08s.05.03.08.03h1.68c0-.17-.04-.33-.11-.46-.07-.14-.18-.24-.31-.32-.13-.08-.28-.12-.45-.12-.16,0-.3.03-.43.1Z"/><path class="cls-1" d="M67.8,69.61v-3.82h.86v.33s0,.04.02.05c.01.01.03.02.05.02.02,0,.05-.01.07-.03.12-.13.28-.23.45-.31s.37-.11.59-.11c.26,0,.49.06.69.17.2.11.35.28.46.49.11.22.16.47.16.77v2.43h-.9v-2.29c0-.17-.03-.31-.09-.44-.06-.12-.14-.22-.26-.28-.11-.06-.24-.1-.4-.1s-.3.03-.42.1c-.12.07-.22.17-.28.3-.07.13-.1.29-.1.47v2.24h-.9Z"/><path class="cls-1" d="M75.52,69.56c0,.32-.08.59-.23.83-.15.24-.37.42-.64.54-.27.13-.58.19-.93.19-.31,0-.59-.05-.84-.16-.25-.11-.45-.25-.61-.43-.16-.18-.25-.37-.29-.57h.9c.05.13.14.25.28.34.14.09.33.14.58.14.17,0,.33-.03.46-.1s.24-.17.32-.3c.08-.13.11-.29.11-.47v-.39s0-.04-.02-.05c-.01-.01-.03-.02-.04-.02-.02,0-.04,0-.05.02-.12.13-.26.24-.44.32s-.37.12-.58.12c-.3,0-.58-.08-.82-.23-.24-.15-.43-.37-.56-.66-.13-.29-.2-.64-.2-1.04s.07-.76.21-1.05c.14-.29.32-.5.56-.65.24-.14.5-.22.8-.22.22,0,.42.04.59.12.17.08.32.2.44.34.02.02.04.03.06.03.02,0,.04,0,.05-.02.01-.01.02-.03.02-.05v-.38h.88v3.77ZM74.23,68.71c.13-.09.24-.23.31-.41.07-.18.1-.39.1-.63,0-.25-.03-.46-.1-.64-.07-.18-.17-.31-.31-.41-.13-.09-.3-.14-.49-.14s-.36.05-.49.15c-.14.1-.24.23-.31.41-.07.18-.1.39-.1.63,0,.24.04.45.1.63s.17.31.31.41c.14.1.3.15.5.15s.35-.05.49-.14Z"/><path class="cls-1" d="M78.99,65.95c.27.14.48.36.64.64.16.29.24.65.24,1.08v.3h-2.7c0,.21.05.4.13.55s.19.27.34.35c.14.08.31.12.5.12s.37-.04.51-.13c.14-.08.24-.21.3-.37h.88c-.06.25-.16.46-.32.64-.16.18-.35.32-.59.41-.24.1-.5.14-.79.14-.38,0-.71-.08-.99-.24s-.49-.39-.64-.68c-.15-.3-.22-.64-.22-1.04s.08-.73.23-1.03.36-.53.64-.7.59-.25.95-.25c.33,0,.62.07.89.21ZM78.89,66.89c-.08-.14-.18-.25-.32-.33-.14-.08-.29-.12-.46-.12-.16,0-.31.04-.44.11-.13.07-.24.17-.33.29s-.14.25-.16.4c0,.03,0,.06.02.08s.05.03.08.03h1.72c0-.17-.04-.33-.12-.46Z"/><path class="cls-1" d="M81.52,69.61h-.9v-5.09h.9v5.09Z"/><path class="cls-1" d="M82.45,65.79h.9v3.82h-.9v-3.82ZM83.35,64.53v.74h-.89v-.74s.89,0,.89,0Z"/><path class="cls-1" d="M87.73,69.56c0,.32-.08.59-.23.83-.15.24-.37.42-.64.54-.27.13-.58.19-.93.19-.31,0-.59-.05-.84-.16-.25-.11-.45-.25-.61-.43-.16-.18-.25-.37-.29-.57h.9c.05.13.14.25.28.34.14.09.33.14.58.14.17,0,.33-.03.46-.1s.24-.17.32-.3c.08-.13.11-.29.11-.47v-.39s0-.04-.02-.05c-.01-.01-.03-.02-.04-.02-.02,0-.04,0-.05.02-.12.13-.26.24-.44.32s-.37.12-.58.12c-.3,0-.58-.08-.82-.23-.24-.15-.43-.37-.56-.66-.13-.29-.2-.64-.2-1.04s.07-.76.21-1.05c.14-.29.32-.5.56-.65.24-.14.5-.22.8-.22.22,0,.42.04.59.12.17.08.32.2.44.34.02.02.04.03.06.03.02,0,.04,0,.05-.02.01-.01.02-.03.02-.05v-.38h.88v3.77ZM86.43,68.71c.13-.09.24-.23.31-.41.07-.18.1-.39.1-.63,0-.25-.03-.46-.1-.64-.07-.18-.17-.31-.31-.41-.13-.09-.3-.14-.49-.14s-.36.05-.49.15c-.14.1-.24.23-.31.41-.07.18-.1.39-.1.63,0,.24.04.45.1.63s.17.31.31.41c.14.1.3.15.5.15s.35-.05.49-.14Z"/><path class="cls-1" d="M92.11,69.56c0,.32-.08.59-.23.83-.15.24-.37.42-.64.54-.27.13-.58.19-.93.19-.31,0-.59-.05-.84-.16-.25-.11-.45-.25-.61-.43-.16-.18-.25-.37-.29-.57h.9c.05.13.14.25.28.34.14.09.33.14.58.14.17,0,.33-.03.46-.1s.24-.17.32-.3c.08-.13.11-.29.11-.47v-.39s0-.04-.02-.05c-.01-.01-.03-.02-.04-.02-.02,0-.04,0-.05.02-.12.13-.26.24-.44.32s-.37.12-.58.12c-.3,0-.58-.08-.82-.23-.24-.15-.43-.37-.56-.66-.13-.29-.2-.64-.2-1.04s.07-.76.21-1.05c.14-.29.32-.5.56-.65.24-.14.5-.22.8-.22.22,0,.42.04.59.12.17.08.32.2.44.34.02.02.04.03.06.03.02,0,.04,0,.05-.02.01-.01.02-.03.02-.05v-.38h.88v3.77ZM90.81,68.71c.13-.09.24-.23.31-.41.07-.18.1-.39.1-.63,0-.25-.03-.46-.1-.64-.07-.18-.17-.31-.31-.41-.13-.09-.3-.14-.49-.14s-.36.05-.49.15c-.14.1-.24.23-.31.41-.07.18-.1.39-.1.63,0,.24.04.45.1.63s.17.31.31.41c.14.1.3.15.5.15s.35-.05.49-.14Z"/><path class="cls-1" d="M96.41,66.96c.08.23.11.49.11.77,0,.39-.08.74-.23,1.03s-.36.53-.64.69-.6.25-.97.25-.68-.08-.95-.24l-.26.35-.46-.36.27-.37c-.14-.17-.24-.37-.32-.6-.07-.23-.11-.48-.11-.75,0-.39.07-.74.22-1.04.15-.3.36-.53.64-.69.28-.16.6-.25.97-.25s.66.08.93.22l.26-.35.47.36-.28.37c.14.17.25.37.33.61ZM93.79,68.05c.02.11.05.2.09.29l1.19-1.65s.02-.05.02-.08c0-.02,0-.04-.02-.06-.01-.02-.03-.03-.05-.04-.1-.04-.21-.06-.33-.06-.2,0-.38.06-.52.17-.14.11-.25.26-.32.45s-.11.41-.11.65c0,.11.01.22.03.33ZM95.21,68.81c.14-.11.25-.26.32-.45s.11-.41.11-.65-.05-.45-.14-.63l-1.19,1.65s-.03.05-.03.08c0,.02,0,.04.01.05,0,.02.02.03.04.04.11.05.23.07.37.07.2,0,.37-.05.51-.17Z"/><path class="cls-1" d="M98.16,65.79v.39s0,.04.02.05c.01.01.03.02.04.02.02,0,.04,0,.06-.03.11-.12.24-.23.4-.31.15-.08.32-.12.51-.12h.28v.7h-.29c-.18,0-.34.04-.49.12-.15.08-.27.19-.36.33-.09.14-.13.29-.13.46v2.21h-.9v-3.82h.87Z"/><path class="cls-1" d="M102.45,65.95c.27.14.48.36.64.64.16.29.24.65.24,1.08v.3h-2.7c0,.21.05.4.13.55s.19.27.34.35c.14.08.31.12.5.12s.37-.04.51-.13c.14-.08.24-.21.3-.37h.88c-.06.25-.16.46-.32.64-.16.18-.35.32-.59.41-.24.1-.5.14-.79.14-.38,0-.71-.08-.99-.24s-.49-.39-.64-.68c-.15-.3-.22-.64-.22-1.04s.08-.73.23-1.03.36-.53.64-.7.59-.25.95-.25c.33,0,.62.07.89.21ZM102.35,66.89c-.08-.14-.18-.25-.32-.33-.14-.08-.29-.12-.46-.12-.16,0-.31.04-.44.11-.13.07-.24.17-.33.29s-.14.25-.16.4c0,.03,0,.06.02.08s.05.03.08.03h1.72c0-.17-.04-.33-.12-.46Z"/><path class="cls-1" d="M104.98,69.61h-.9v-5.09h.9v5.09Z"/><path class="cls-1" d="M107.97,66.66c-.06-.07-.14-.13-.24-.18s-.22-.07-.35-.07c-.12,0-.23.02-.33.06-.1.04-.17.09-.23.16s-.08.14-.08.23c0,.11.04.2.12.27s.22.13.42.17l.65.14c.36.08.63.2.81.37s.27.39.27.66c0,.24-.07.45-.2.63-.14.19-.33.33-.57.43-.24.1-.52.15-.84.15s-.59-.05-.83-.15-.43-.24-.58-.42c-.15-.19-.24-.41-.29-.66h.9c.02.11.07.2.15.29s.16.15.27.2c.11.05.24.07.37.07s.26-.02.37-.06c.1-.04.18-.09.24-.16.06-.07.08-.15.08-.24,0-.11-.04-.2-.13-.27s-.21-.13-.39-.17l-.65-.14c-.72-.15-1.08-.51-1.07-1.08,0-.23.06-.43.19-.61s.3-.31.53-.41c.23-.1.5-.14.8-.14s.56.05.78.14c.23.09.41.23.54.41s.22.38.26.62h-.85c-.02-.09-.06-.18-.12-.25Z"/><path class="cls-1" d="M112.29,65.95c.27.14.48.36.64.64.16.29.24.65.24,1.08v.3h-2.7c0,.21.05.4.13.55s.19.27.34.35c.14.08.31.12.5.12s.37-.04.51-.13c.14-.08.24-.21.3-.37h.88c-.06.25-.16.46-.32.64-.16.18-.35.32-.59.41-.24.1-.5.14-.79.14-.38,0-.71-.08-.99-.24s-.49-.39-.64-.68c-.15-.3-.22-.64-.22-1.04s.08-.73.23-1.03.36-.53.64-.7.59-.25.95-.25c.33,0,.62.07.89.21ZM112.19,66.89c-.08-.14-.18-.25-.32-.33-.14-.08-.29-.12-.46-.12-.16,0-.31.04-.44.11-.13.07-.24.17-.33.29s-.14.25-.16.4c0,.03,0,.06.02.08s.05.03.08.03h1.72c0-.17-.04-.33-.12-.46Z"/><path class="cls-1" d="M115.99,66.66c-.06-.07-.14-.13-.24-.18s-.22-.07-.35-.07c-.12,0-.23.02-.33.06-.1.04-.17.09-.23.16s-.08.14-.08.23c0,.11.04.2.12.27s.22.13.42.17l.65.14c.36.08.63.2.81.37s.27.39.27.66c0,.24-.07.45-.2.63-.14.19-.33.33-.57.43-.24.1-.52.15-.84.15s-.59-.05-.83-.15-.43-.24-.58-.42c-.15-.19-.24-.41-.29-.66h.9c.02.11.07.2.15.29s.16.15.27.2c.11.05.24.07.37.07s.26-.02.37-.06c.1-.04.18-.09.24-.16.06-.07.08-.15.08-.24,0-.11-.04-.2-.13-.27s-.21-.13-.39-.17l-.65-.14c-.72-.15-1.08-.51-1.07-1.08,0-.23.06-.43.19-.61s.3-.31.53-.41c.23-.1.5-.14.8-.14s.56.05.78.14c.23.09.41.23.54.41s.22.38.26.62h-.85c-.02-.09-.06-.18-.12-.25Z"/><path class="cls-1" d="M119.84,66.66c-.06-.07-.14-.13-.24-.18s-.22-.07-.35-.07c-.12,0-.23.02-.33.06-.1.04-.17.09-.23.16s-.08.14-.08.23c0,.11.04.2.12.27s.22.13.42.17l.65.14c.36.08.63.2.81.37s.27.39.27.66c0,.24-.07.45-.2.63-.14.19-.33.33-.57.43-.24.1-.52.15-.84.15s-.59-.05-.83-.15-.43-.24-.58-.42c-.15-.19-.24-.41-.29-.66h.9c.02.11.07.2.15.29s.16.15.27.2c.11.05.24.07.37.07s.26-.02.37-.06c.1-.04.18-.09.24-.16.06-.07.08-.15.08-.24,0-.11-.04-.2-.13-.27s-.21-.13-.39-.17l-.65-.14c-.72-.15-1.08-.51-1.07-1.08,0-.23.06-.43.19-.61s.3-.31.53-.41c.23-.1.5-.14.8-.14s.56.05.78.14c.23.09.41.23.54.41s.22.38.26.62h-.85c-.02-.09-.06-.18-.12-.25Z"/><path class="cls-1" d="M121.67,70.08h.36c.11,0,.2-.01.28-.03s.14-.05.2-.1c.06-.05.11-.12.14-.22l.03-.09-1.37-3.85h.95l.82,2.67s.02.04.03.05c.01.01.03.02.05.02s.03,0,.05-.02c.02-.01.03-.03.03-.05l.82-2.67h.96l-1.49,4.17c-.1.29-.26.51-.48.64-.21.14-.5.21-.85.21h-.54v-.73Z"/><path class="cls-1" d="M127.71,66.66c-.06-.07-.14-.13-.24-.18s-.22-.07-.35-.07c-.12,0-.23.02-.33.06-.1.04-.17.09-.23.16s-.08.14-.08.23c0,.11.04.2.12.27s.22.13.42.17l.65.14c.36.08.63.2.81.37s.27.39.27.66c0,.24-.07.45-.2.63-.14.19-.33.33-.57.43-.24.1-.52.15-.84.15s-.59-.05-.83-.15-.43-.24-.58-.42c-.15-.19-.24-.41-.29-.66h.9c.02.11.07.2.15.29s.16.15.27.2c.11.05.24.07.37.07s.26-.02.37-.06c.1-.04.18-.09.24-.16.06-.07.08-.15.08-.24,0-.11-.04-.2-.13-.27s-.21-.13-.39-.17l-.65-.14c-.72-.15-1.08-.51-1.07-1.08,0-.23.06-.43.19-.61s.3-.31.53-.41c.23-.1.5-.14.8-.14s.56.05.78.14c.23.09.41.23.54.41s.22.38.26.62h-.85c-.02-.09-.06-.18-.12-.25Z"/><path class="cls-1" d="M130.64,68.41c0,.17.04.28.11.34.07.06.17.1.3.1h.43v.76h-.54c-.23,0-.44-.04-.62-.12-.18-.08-.32-.19-.42-.35-.1-.16-.15-.35-.15-.58v-2.07h-.54v-.7h.37s.09-.02.12-.05c.03-.04.05-.08.05-.13v-.73h.9v.92h.83v.7h-.83v1.92Z"/><path class="cls-1" d="M134.69,65.95c.27.14.48.36.64.64.16.29.24.65.24,1.08v.3h-2.7c0,.21.05.4.13.55s.19.27.34.35c.14.08.31.12.5.12s.37-.04.51-.13c.14-.08.24-.21.3-.37h.88c-.06.25-.16.46-.32.64-.16.18-.35.32-.59.41-.24.1-.5.14-.79.14-.38,0-.71-.08-.99-.24s-.49-.39-.64-.68c-.15-.3-.22-.64-.22-1.04s.08-.73.23-1.03.36-.53.64-.7.59-.25.95-.25c.33,0,.62.07.89.21ZM134.59,66.89c-.08-.14-.18-.25-.32-.33-.14-.08-.29-.12-.46-.12-.16,0-.31.04-.44.11-.13.07-.24.17-.33.29s-.14.25-.16.4c0,.03,0,.06.02.08s.05.03.08.03h1.72c0-.17-.04-.33-.12-.46Z"/><path class="cls-1" d="M137.18,65.79v.31s0,.04.02.06c.02.01.04.02.06.02.03,0,.05-.01.06-.03.11-.13.25-.23.41-.3.16-.07.34-.1.54-.1.22,0,.42.04.58.13.17.09.3.21.39.36.02.03.04.05.07.05.03,0,.05-.01.07-.04.12-.16.27-.28.47-.37.19-.09.41-.13.64-.13s.44.05.62.15c.18.1.32.25.42.44.1.2.15.43.15.71v2.56h-.9v-2.42c0-.15-.03-.28-.08-.38-.06-.1-.13-.18-.23-.23s-.21-.07-.33-.07c-.14,0-.26.03-.36.09s-.19.15-.24.26-.09.24-.09.38v2.38h-.88v-2.46c0-.13-.03-.24-.08-.34-.05-.1-.13-.17-.23-.23-.1-.05-.21-.08-.33-.08s-.25.03-.35.1c-.11.07-.19.16-.25.28-.06.12-.09.26-.09.41v2.32h-.9v-3.82h.86Z"/></g></svg>