<svg xmlns="http://www.w3.org/2000/svg" width="1089" height="375" viewBox="0 0 1089 375">
  <g fill="#242414" fill-rule="evenodd">
    <path fill-rule="nonzero" d="M165.427939,368.074121 C165.427939,361.797542 165.283749,361.148241 164.202321,361.653253 C159.948705,363.240434 148.125095,366.342651 141.997005,367.496964 C136.661961,368.506988 131.326917,368.795566 121.449877,368.795566 C106.454079,368.795566 100.325988,367.929831 86.988379,363.745446 C21.598047,343.400675 -18.0543043,267.648869 8.18834275,213.035423 C18.6421445,191.319906 38.9008912,174.798797 67.0901082,165.059279 C79.923051,160.65846 86.195332,159.792725 101.623701,160.225593 C109.626267,160.442026 117.989308,161.163472 123.396447,162.101352 C134.42701,163.977111 152.162426,168.522219 161.246419,171.768725 L168.167556,174.293785 L168.744318,167.295761 C169.537365,156.329785 169.321079,109.724388 168.383842,95.8004848 C165.57213,55.471666 158.723087,28.2731602 148.846047,18.0286302 C147.259953,16.3693049 146.10643,14.6378351 146.322716,14.2771122 C146.539001,13.9163893 148.918142,12.9785098 151.585664,12.1849194 C163.409274,8.64983515 210.415334,-0.873249093 211.352572,0.0646304154 C211.640952,0.353208726 209.622287,48.1129191 206.954766,106.189304 L202.052293,211.808966 L208.324574,219.239857 C216.47133,228.979375 220.797041,235.255953 228.43913,248.241977 C239.469694,267.143857 248.121116,278.759134 260.954058,291.745157 C272.345098,303.216145 282.438423,310.06988 293.396891,313.749254 C298.010983,315.336434 299.597077,315.480724 311.420687,315.408579 C321.009347,315.408579 325.695534,315.047856 329.372388,314.109977 C348.117136,309.564868 358.859319,293.83735 358.859319,271.111808 C358.787223,237.203857 336.221431,206.903134 306.806596,201.059424 C299.813363,199.688677 286.187373,200.554411 278.256903,202.863038 C269.533385,205.388098 254.537587,212.963279 246.174546,219.095568 C242.425596,221.837062 239.253408,223.784965 239.109218,223.424243 C238.965027,223.06352 239.541789,216.859086 240.334836,209.644628 C247.688545,143.560195 245.886165,82.6701717 235.432363,40.9706059 C234.27884,36.4254975 233.413698,32.6018349 233.485793,32.5296903 C233.99046,31.9525337 269.028719,39.0948469 282.582614,42.485642 C296.424889,45.9485817 300.318029,48.3293528 294.694605,49.7722444 C282.726804,52.8744612 275.084715,89.8846295 273.787001,150.918942 C273.35443,172.706605 273.35443,173.211617 274.724239,172.706605 C278.256903,171.263713 288.350228,168.594364 294.478319,167.44005 C305.004216,165.492147 325.479248,165.70858 336.149336,167.800773 C382.79492,177.107424 419.347178,210.221785 428.214886,251.272049 C433.622025,275.87335 426.628792,302.061832 408.821281,324.210217 C384.88568,354.005928 349.55904,368.867711 306.013549,367.569109 C291.594512,367.136241 287.196705,366.342651 275.301,362.374699 C251.077018,354.294506 228.15075,336.474796 202.98953,306.174073 C199.384771,301.917543 188.498398,287.84935 178.693453,275.007616 C168.888508,262.093736 157.857945,248.097688 154.181091,243.769013 C141.131862,228.546508 129.308252,219.239857 117.989308,215.34405 C112.365884,213.396146 111.212361,213.251857 104.579604,213.540435 C98.8119892,213.829014 96.1444674,214.334026 91.8908516,215.921206 C84.3929524,218.80699 74.5880074,225.58858 67.378489,232.875182 C56.9967824,243.336146 52.9594521,252.137784 52.3826906,265.845254 C51.9501195,276.234073 53.7524991,284.674989 58.4386861,294.342362 C70.3343915,318.72723 93.5490408,333.877591 118.998641,333.877591 C139.257388,333.877591 157.136993,325.725254 175.44917,308.194121 C180.135357,303.721157 183.884307,300.691085 184.749449,300.691085 C186.696019,300.691085 191.454301,306.246218 194.554394,312.234218 C199.745247,322.118025 200.89877,331.785398 199.817342,357.541012 L199.09639,375 L182.226117,375 L165.427939,375 L165.427939,368.074121 Z"/>
    <g transform="translate(479 101)">
      <path d="M48.783532 78.0214758L48.783532 69.6620319 48.5566319 69.6620319C44.3589791 76.2670246 35.3964232 79.2599119 27.5683681 79.2599119 11.4584575 79.2599119 0 68.7332048 0 54.1815804 0 39.6299559 11.4584575 29.1032489 27.5683681 29.1032489 35.3964232 29.1032489 44.3589791 32.0961362 48.5566319 38.7011289L48.783532 38.7011289 48.783532 0 55.5905365 0 55.5905365 78.0214758 48.783532 78.0214758zM49.4642325 54.1815804C49.4642325 43.4484673 39.9344262 34.6762115 27.5683681 34.6762115 14.7485097 34.6762115 6.80700447 43.4484673 6.80700447 54.1815804 6.80700447 64.9146935 14.7485097 73.6869493 27.5683681 73.6869493 39.9344262 73.6869493 49.4642325 64.9146935 49.4642325 54.1815804zM112.996274 46.3381516L112.996274 58.0000918C112.996274 67.2883627 113.223174 72.5517162 114.017325 78.0214758L107.664121 78.0214758C107.21032 75.6478065 106.98342 72.9645283 106.98342 70.28125L106.75652 70.28125C102.899218 76.3702276 97.2267139 79.2599119 88.377608 79.2599119 79.4150522 79.2599119 69.8852459 75.2349945 69.8852459 65.1210995 69.8852459 50.569475 88.6045082 49.1246329 98.928465 49.1246329L106.86997 49.1246329 106.86997 46.2349486C106.86997 37.9787078 100.516766 34.6762115 92.1214605 34.6762115 85.9951565 34.6762115 80.7764531 36.4306626 76.125 40.042768L72.1542474 35.8114446C77.1460507 31.4769181 85.314456 29.1032489 92.1214605 29.1032489 104.827869 29.1032489 112.996274 34.2633994 112.996274 46.3381516zM106.86997 54.0783774L99.3822653 54.0783774C88.0372578 54.0783774 76.6922504 56.6584526 76.6922504 64.8114905 76.6922504 70.694062 82.9320045 73.6869493 88.6045082 73.6869493 103.126118 73.6869493 106.86997 65.2243025 106.86997 57.2776707L106.86997 54.0783774zM156.788003 30.341685L156.788003 35.9146476 141.812593 35.9146476 141.812593 66.9787537C141.812593 71.2100771 144.535395 73.6869493 149.073398 73.6869493 151.68275 73.6869493 154.405551 72.9645283 156.788003 72.0357012L157.355253 77.6086637C154.859352 78.4342878 151.115499 79.2599119 148.506148 79.2599119 138.749441 79.2599119 135.005589 73.7901523 135.005589 66.9787537L135.005589 35.9146476 123.660581 35.9146476 123.660581 30.341685 135.005589 30.341685 135.005589 16.6156847 141.812593 16.6156847 141.812593 30.341685 156.788003 30.341685zM209.655738 46.3381516L209.655738 58.0000918C209.655738 67.2883627 209.882638 72.5517162 210.676788 78.0214758L204.323584 78.0214758C203.869784 75.6478065 203.642884 72.9645283 203.642884 70.28125L203.415984 70.28125C199.558681 76.3702276 193.886177 79.2599119 185.037072 79.2599119 176.074516 79.2599119 166.544709 75.2349945 166.544709 65.1210995 166.544709 50.569475 185.263972 49.1246329 195.587928 49.1246329L203.529434 49.1246329 203.529434 46.2349486C203.529434 37.9787078 197.17623 34.6762115 188.780924 34.6762115 182.65462 34.6762115 177.435917 36.4306626 172.784463 40.042768L168.813711 35.8114446C173.805514 31.4769181 181.97392 29.1032489 188.780924 29.1032489 201.487332 29.1032489 209.655738 34.2633994 209.655738 46.3381516zM203.529434 54.0783774L196.041729 54.0783774C184.696721 54.0783774 173.351714 56.6584526 173.351714 64.8114905 173.351714 70.694062 179.591468 73.6869493 185.263972 73.6869493 199.785581 73.6869493 203.529434 65.2243025 203.529434 57.2776707L203.529434 54.0783774zM226.332899 78.0214758L226.332899 0 233.139903 0 233.139903 38.7011289 233.366803 38.7011289C237.564456 32.0961362 246.527012 29.1032489 254.355067 29.1032489 270.464978 29.1032489 281.923435 39.6299559 281.923435 54.1815804 281.923435 68.7332048 270.464978 79.2599119 254.355067 79.2599119 246.527012 79.2599119 237.564456 76.2670246 233.366803 69.6620319L233.139903 69.6620319 233.139903 78.0214758 226.332899 78.0214758zM232.459203 54.1815804C232.459203 64.9146935 241.989009 73.6869493 254.355067 73.6869493 267.174925 73.6869493 275.116431 64.9146935 275.116431 54.1815804 275.116431 43.4484673 267.174925 34.6762115 254.355067 34.6762115 241.989009 34.6762115 232.459203 43.4484673 232.459203 54.1815804zM337.854322 46.3381516L337.854322 58.0000918C337.854322 67.2883627 338.081222 72.5517162 338.875373 78.0214758L332.522168 78.0214758C332.068368 75.6478065 331.841468 72.9645283 331.841468 70.28125L331.614568 70.28125C327.757265 76.3702276 322.084762 79.2599119 313.235656 79.2599119 304.2731 79.2599119 294.743294 75.2349945 294.743294 65.1210995 294.743294 50.569475 313.462556 49.1246329 323.786513 49.1246329L331.728018 49.1246329 331.728018 46.2349486C331.728018 37.9787078 325.374814 34.6762115 316.979508 34.6762115 310.853204 34.6762115 305.634501 36.4306626 300.983048 40.042768L297.012295 35.8114446C302.004098 31.4769181 310.172504 29.1032489 316.979508 29.1032489 329.685917 29.1032489 337.854322 34.2633994 337.854322 46.3381516zM331.728018 54.0783774L324.240313 54.0783774C312.895306 54.0783774 301.550298 56.6584526 301.550298 64.8114905 301.550298 70.694062 307.790052 73.6869493 313.462556 73.6869493 327.984165 73.6869493 331.728018 65.2243025 331.728018 57.2776707L331.728018 54.0783774zM350.10693 69.5588289L356.119784 65.8435206C358.956036 70.9004681 365.19579 73.6869493 371.322094 73.6869493 377.221498 73.6869493 383.347802 70.384453 383.347802 64.9146935 383.347802 51.8079112 352.262481 60.9929791 352.262481 42.8292493 352.262481 33.5409783 361.565387 29.1032489 370.187593 29.1032489 378.696349 29.1032489 385.276453 31.9929332 388.679955 38.0819108L382.553651 41.3844071C379.9443 37.0498807 376.313897 34.6762115 370.187593 34.6762115 365.30924 34.6762115 359.069486 37.3594897 359.069486 42.3132342 359.069486 55.2136105 390.154806 45.2029185 390.154806 64.5018814 390.154806 74.3061674 381.19225 79.2599119 371.208644 79.2599119 362.246088 79.2599119 354.191133 76.1638216 350.10693 69.5588289zM445.631893 65.2243025L450.623696 69.0428139C445.291542 76.2670246 437.236587 79.2599119 427.933681 79.2599119 411.937221 79.2599119 401.386364 68.8364079 401.386364 54.0783774 401.386364 39.836362 412.277571 29.1032489 427.593331 29.1032489 443.703241 29.1032489 452.211997 40.352377 452.211997 51.3950991L452.211997 55.7296256 408.193368 55.7296256C408.193368 60.8897761 412.164121 73.6869493 428.047131 73.6869493 434.967586 73.6869493 442.22839 70.384453 445.631893 65.2243025zM408.193368 50.156663L445.404993 50.156663C445.404993 41.6940162 437.350037 34.6762115 427.252981 34.6762115 412.391021 34.6762115 408.193368 47.6797907 408.193368 50.156663zM1.47485097 173L1.47485097 101.789923 8.28185544 101.789923 8.28185544 110.149367 8.50875559 110.149367C12.7064083 103.544374 21.6689642 100.551487 29.4970194 100.551487 45.60693 100.551487 57.0653875 111.078194 57.0653875 125.629818 57.0653875 140.181443 45.60693 150.70815 29.4970194 150.70815 21.6689642 150.70815 12.7064083 147.715262 8.50875559 141.11027L8.28185544 141.11027 8.28185544 173 1.47485097 173zM7.60115499 125.629818C7.60115499 136.362931 17.1309613 145.135187 29.4970194 145.135187 42.3168778 145.135187 50.258383 136.362931 50.258383 125.629818 50.258383 114.896705 42.3168778 106.124449 29.4970194 106.124449 17.1309613 106.124449 7.60115499 114.896705 7.60115499 125.629818zM72.2676975 149.469714L72.2676975 115.206314C72.2676975 111.697412 71.7004471 104.266795 71.7004471 101.789923L78.5074516 101.789923C78.6209016 105.298825 78.7343517 109.22054 78.9612519 110.149367 82.3647541 104.576404 87.8103577 100.551487 95.6384128 100.551487 96.9998137 100.551487 98.2477645 100.757893 99.6091654 101.067502L98.8150149 107.156479C97.7939642 106.84687 96.8863636 106.743667 96.2056632 106.743667 84.4068554 106.743667 79.0747019 114.174284 79.0747019 123.462555L79.0747019 149.469714 72.2676975 149.469714zM149.300298 136.67254L154.292101 140.491052C148.959948 147.715262 140.904993 150.70815 131.602086 150.70815 115.605626 150.70815 105.054769 140.284646 105.054769 125.526615 105.054769 111.2846 115.945976 100.551487 131.261736 100.551487 147.371647 100.551487 155.880402 111.800615 155.880402 122.843337L155.880402 127.177863 111.861773 127.177863C111.861773 132.338014 115.832526 145.135187 131.715537 145.135187 138.635991 145.135187 145.896796 141.832691 149.300298 136.67254zM111.861773 121.604901L149.073398 121.604901C149.073398 113.142254 141.018443 106.124449 130.921386 106.124449 116.059426 106.124449 111.861773 119.128029 111.861773 121.604901zM165.183308 141.007067L171.196162 137.291758C174.032414 142.348706 180.272168 145.135187 186.398472 145.135187 192.297876 145.135187 198.42418 141.832691 198.42418 136.362931 198.42418 123.256149 167.33886 132.441217 167.33886 114.277487 167.33886 104.989216 176.641766 100.551487 185.263972 100.551487 193.772727 100.551487 200.352832 103.441171 203.756334 109.530149L197.63003 112.832645C195.020678 108.498119 191.390276 106.124449 185.263972 106.124449 180.385618 106.124449 174.145864 108.807728 174.145864 113.761472 174.145864 126.661848 205.231185 116.651156 205.231185 135.950119 205.231185 145.754405 196.268629 150.70815 186.285022 150.70815 177.322466 150.70815 169.267511 147.612059 165.183308 141.007067zM260.708271 136.67254L265.700075 140.491052C260.367921 147.715262 252.312966 150.70815 243.01006 150.70815 227.013599 150.70815 216.462742 140.284646 216.462742 125.526615 216.462742 111.2846 227.353949 100.551487 242.669709 100.551487 258.77962 100.551487 267.288376 111.800615 267.288376 122.843337L267.288376 127.177863 223.269747 127.177863C223.269747 132.338014 227.240499 145.135187 243.12351 145.135187 250.043964 145.135187 257.304769 141.832691 260.708271 136.67254zM223.269747 121.604901L260.481371 121.604901C260.481371 113.142254 252.426416 106.124449 242.329359 106.124449 227.467399 106.124449 223.269747 119.128029 223.269747 121.604901zM282.490686 149.469714L282.490686 115.206314C282.490686 111.697412 281.923435 104.266795 281.923435 101.789923L288.73044 101.789923C288.84389 105.298825 288.95734 109.22054 289.18424 110.149367 292.587742 104.576404 298.033346 100.551487 305.861401 100.551487 307.222802 100.551487 308.470753 100.757893 309.832154 101.067502L309.038003 107.156479C308.016952 106.84687 307.109352 106.743667 306.428651 106.743667 294.629844 106.743667 289.29769 114.174284 289.29769 123.462555L289.29769 149.469714 282.490686 149.469714zM334.33737 149.469714L312.895306 101.789923 320.609911 101.789923 338.081222 142.761518 355.098733 101.789923 362.019188 101.789923 341.371274 149.469714 334.33737 149.469714zM413.525522 117.78639L413.525522 129.44833C413.525522 138.736601 413.752422 143.999954 414.546572 149.469714L408.193368 149.469714C407.739568 147.096044 407.512668 144.412766 407.512668 141.729488L407.285768 141.729488C403.428465 147.818465 397.755961 150.70815 388.906855 150.70815 379.9443 150.70815 370.414493 146.683232 370.414493 136.569337 370.414493 122.017713 389.133756 120.572871 399.457712 120.572871L407.399218 120.572871 407.399218 117.683186C407.399218 109.426946 401.046013 106.124449 392.650708 106.124449 386.524404 106.124449 381.3057 107.878901 376.654247 111.491006L372.683495 107.259682C377.675298 102.925156 385.843703 100.551487 392.650708 100.551487 405.357116 100.551487 413.525522 105.711637 413.525522 117.78639zM407.399218 125.526615L399.911513 125.526615C388.566505 125.526615 377.221498 128.106691 377.221498 136.259728 377.221498 142.1423 383.461252 145.135187 389.133756 145.135187 403.655365 145.135187 407.399218 136.67254 407.399218 128.725909L407.399218 125.526615zM457.31725 101.789923L457.31725 107.362885 442.341841 107.362885 442.341841 138.426992C442.341841 142.658315 445.064642 145.135187 449.602645 145.135187 452.211997 145.135187 454.934799 144.412766 457.31725 143.483939L457.884501 149.056902C455.388599 149.882526 451.644747 150.70815 449.035395 150.70815 439.278689 150.70815 435.534836 145.23839 435.534836 138.426992L435.534836 107.362885 424.189829 107.362885 424.189829 101.789923 435.534836 101.789923 435.534836 88.0639225 442.341841 88.0639225 442.341841 101.789923 457.31725 101.789923zM470.590909 149.469714L470.590909 101.789923 477.397914 101.789923 477.397914 149.469714 470.590909 149.469714zM468.889158 82.903772C468.889158 80.3236968 471.158159 78.2596366 473.994411 78.2596366 476.830663 78.2596366 479.099665 80.3236968 479.099665 82.903772 479.099665 85.4838473 476.830663 87.5479075 473.994411 87.5479075 471.158159 87.5479075 468.889158 85.4838473 468.889158 82.903772zM493.734724 125.629818C493.734724 111.078194 505.193182 100.551487 521.303092 100.551487 537.413003 100.551487 548.871461 111.078194 548.871461 125.629818 548.871461 140.181443 537.413003 150.70815 521.303092 150.70815 505.193182 150.70815 493.734724 140.181443 493.734724 125.629818zM500.541729 125.629818C500.541729 136.362931 508.483234 145.135187 521.303092 145.135187 534.122951 145.135187 542.064456 136.362931 542.064456 125.629818 542.064456 114.896705 534.122951 106.124449 521.303092 106.124449 508.483234 106.124449 500.541729 114.896705 500.541729 125.629818zM564.07377 149.469714L564.07377 115.206314C564.07377 111.697412 563.50652 104.266795 563.50652 101.789923L570.313525 101.789923C570.426975 105.298825 570.540425 109.22054 570.767325 110.149367L571.107675 110.149367C573.830477 104.886013 580.524031 100.551487 589.032787 100.551487 605.369598 100.551487 609 110.665382 609 121.088886L609 149.469714 602.192996 149.469714 602.192996 121.398495C602.192996 113.658269 599.810544 106.124449 589.032787 106.124449 578.93573 106.124449 570.880775 112.523036 570.880775 125.629818L570.880775 149.469714 564.07377 149.469714zM498.07745 54.1670212L498.07745 56.5854536 492.165726 56.5854536 492.165726 70.0659753C492.165726 71.9021925 493.240585 72.9770514 495.032016 72.9770514 496.062089 72.9770514 497.136948 72.6635509 498.07745 72.2604788L498.301379 74.6789113C497.316091 75.0371975 495.83816 75.3954838 494.808087 75.3954838 490.95651 75.3954838 489.478579 73.0218372 489.478579 70.0659753L489.478579 56.5854536 485 56.5854536 485 54.1670212 489.478579 54.1670212 489.478579 48.2105116 492.165726 48.2105116 492.165726 54.1670212 498.07745 54.1670212zM501.705098 64.5125378C501.705098 58.1977419 506.228463 53.6295917 512.588044 53.6295917 518.947626 53.6295917 523.47099 58.1977419 523.47099 64.5125378 523.47099 70.8273336 518.947626 75.3954838 512.588044 75.3954838 506.228463 75.3954838 501.705098 70.8273336 501.705098 64.5125378zM504.392245 64.5125378C504.392245 69.1702595 507.52725 72.9770514 512.588044 72.9770514 517.648838 72.9770514 520.783843 69.1702595 520.783843 64.5125378 520.783843 59.854816 517.648838 56.0480242 512.588044 56.0480242 507.52725 56.0480242 504.392245 59.854816 504.392245 64.5125378zM528.307855 64.5125378C528.307855 58.1977419 532.83122 53.6295917 539.190801 53.6295917 545.550383 53.6295917 550.073747 58.1977419 550.073747 64.5125378 550.073747 70.8273336 545.550383 75.3954838 539.190801 75.3954838 532.83122 75.3954838 528.307855 70.8273336 528.307855 64.5125378zM530.995002 64.5125378C530.995002 69.1702595 534.130008 72.9770514 539.190801 72.9770514 544.251595 72.9770514 547.3866 69.1702595 547.3866 64.5125378 547.3866 59.854816 544.251595 56.0480242 539.190801 56.0480242 534.130008 56.0480242 530.995002 59.854816 530.995002 64.5125378zM556.522901 74.8580544L556.522901 41 559.210048 41 559.210048 74.8580544 556.522901 74.8580544zM566.823631 74.8580544L566.823631 41 569.510779 41 569.510779 63.5720363 579.721938 54.2118069 583.663087 54.2118069 573.00407 63.6616078 584.917089 74.8580544 580.841583 74.8580544 569.510779 63.9303226 569.510779 74.8580544 566.823631 74.8580544zM588.813452 74.8580544L588.813452 54.1670212 591.5006 54.1670212 591.5006 74.8580544 588.813452 74.8580544zM588.141666 45.9712223C588.141666 44.8515776 589.037381 43.9558619 590.157026 43.9558619 591.276671 43.9558619 592.172386 44.8515776 592.172386 45.9712223 592.172386 47.0908669 591.276671 47.9865827 590.157026 47.9865827 589.037381 47.9865827 588.141666 47.0908669 588.141666 45.9712223zM609.235771 54.1670212L609.235771 56.5854536 603.324047 56.5854536 603.324047 70.0659753C603.324047 71.9021925 604.398906 72.9770514 606.190338 72.9770514 607.220411 72.9770514 608.29527 72.6635509 609.235771 72.2604788L609.4597 74.6789113C608.474413 75.0371975 606.996482 75.3954838 605.966409 75.3954838 602.114831 75.3954838 600.6369 73.0218372 600.6369 70.0659753L600.6369 56.5854536 596.158321 56.5854536 596.158321 54.1670212 600.6369 54.1670212 600.6369 48.2105116 603.324047 48.2105116 603.324047 54.1670212 609.235771 54.1670212z"/>
    </g>
  </g>
</svg>
