<svg xmlns="http://www.w3.org/2000/svg" width="1080" height="375" viewBox="0 0 1080 375">
  <g fill="#242414" fill-rule="evenodd">
    <path fill-rule="nonzero" d="M165.427939,368.074121 C165.427939,361.797542 165.283749,361.148241 164.202321,361.653253 C159.948705,363.240434 148.125095,366.342651 141.997005,367.496964 C136.661961,368.506988 131.326917,368.795566 121.449877,368.795566 C106.454079,368.795566 100.325988,367.929831 86.988379,363.745446 C21.598047,343.400675 -18.0543043,267.648869 8.18834275,213.035423 C18.6421445,191.319906 38.9008912,174.798797 67.0901082,165.059279 C79.923051,160.65846 86.195332,159.792725 101.623701,160.225593 C109.626267,160.442026 117.989308,161.163472 123.396447,162.101352 C134.42701,163.977111 152.162426,168.522219 161.246419,171.768725 L168.167556,174.293785 L168.744318,167.295761 C169.537365,156.329785 169.321079,109.724388 168.383842,95.8004848 C165.57213,55.471666 158.723087,28.2731602 148.846047,18.0286302 C147.259953,16.3693049 146.10643,14.6378351 146.322716,14.2771122 C146.539001,13.9163893 148.918142,12.9785098 151.585664,12.1849194 C163.409274,8.64983515 210.415334,-0.873249093 211.352572,0.0646304154 C211.640952,0.353208726 209.622287,48.1129191 206.954766,106.189304 L202.052293,211.808966 L208.324574,219.239857 C216.47133,228.979375 220.797041,235.255953 228.43913,248.241977 C239.469694,267.143857 248.121116,278.759134 260.954058,291.745157 C272.345098,303.216145 282.438423,310.06988 293.396891,313.749254 C298.010983,315.336434 299.597077,315.480724 311.420687,315.408579 C321.009347,315.408579 325.695534,315.047856 329.372388,314.109977 C348.117136,309.564868 358.859319,293.83735 358.859319,271.111808 C358.787223,237.203857 336.221431,206.903134 306.806596,201.059424 C299.813363,199.688677 286.187373,200.554411 278.256903,202.863038 C269.533385,205.388098 254.537587,212.963279 246.174546,219.095568 C242.425596,221.837062 239.253408,223.784965 239.109218,223.424243 C238.965027,223.06352 239.541789,216.859086 240.334836,209.644628 C247.688545,143.560195 245.886165,82.6701717 235.432363,40.9706059 C234.27884,36.4254975 233.413698,32.6018349 233.485793,32.5296903 C233.99046,31.9525337 269.028719,39.0948469 282.582614,42.485642 C296.424889,45.9485817 300.318029,48.3293528 294.694605,49.7722444 C282.726804,52.8744612 275.084715,89.8846295 273.787001,150.918942 C273.35443,172.706605 273.35443,173.211617 274.724239,172.706605 C278.256903,171.263713 288.350228,168.594364 294.478319,167.44005 C305.004216,165.492147 325.479248,165.70858 336.149336,167.800773 C382.79492,177.107424 419.347178,210.221785 428.214886,251.272049 C433.622025,275.87335 426.628792,302.061832 408.821281,324.210217 C384.88568,354.005928 349.55904,368.867711 306.013549,367.569109 C291.594512,367.136241 287.196705,366.342651 275.301,362.374699 C251.077018,354.294506 228.15075,336.474796 202.98953,306.174073 C199.384771,301.917543 188.498398,287.84935 178.693453,275.007616 C168.888508,262.093736 157.857945,248.097688 154.181091,243.769013 C141.131862,228.546508 129.308252,219.239857 117.989308,215.34405 C112.365884,213.396146 111.212361,213.251857 104.579604,213.540435 C98.8119892,213.829014 96.1444674,214.334026 91.8908516,215.921206 C84.3929524,218.80699 74.5880074,225.58858 67.378489,232.875182 C56.9967824,243.336146 52.9594521,252.137784 52.3826906,265.845254 C51.9501195,276.234073 53.7524991,284.674989 58.4386861,294.342362 C70.3343915,318.72723 93.5490408,333.877591 118.998641,333.877591 C139.257388,333.877591 157.136993,325.725254 175.44917,308.194121 C180.135357,303.721157 183.884307,300.691085 184.749449,300.691085 C186.696019,300.691085 191.454301,306.246218 194.554394,312.234218 C199.745247,322.118025 200.89877,331.785398 199.817342,357.541012 L199.09639,375 L182.226117,375 L165.427939,375 L165.427939,368.074121 Z"/>
    <g transform="translate(483 123)">
      <path d="M485.07745 61.1670212L485.07745 63.5854536 479.165726 63.5854536 479.165726 77.0659753C479.165726 78.9021925 480.240585 79.9770514 482.032016 79.9770514 483.062089 79.9770514 484.136948 79.6635509 485.07745 79.2604788L485.301379 81.6789113C484.316091 82.0371975 482.83816 82.3954838 481.808087 82.3954838 477.95651 82.3954838 476.478579 80.0218372 476.478579 77.0659753L476.478579 63.5854536 472 63.5854536 472 61.1670212 476.478579 61.1670212 476.478579 55.2105116 479.165726 55.2105116 479.165726 61.1670212 485.07745 61.1670212zM488.705098 71.5125378C488.705098 65.1977419 493.228463 60.6295917 499.588044 60.6295917 505.947626 60.6295917 510.47099 65.1977419 510.47099 71.5125378 510.47099 77.8273336 505.947626 82.3954838 499.588044 82.3954838 493.228463 82.3954838 488.705098 77.8273336 488.705098 71.5125378zM491.392245 71.5125378C491.392245 76.1702595 494.52725 79.9770514 499.588044 79.9770514 504.648838 79.9770514 507.783843 76.1702595 507.783843 71.5125378 507.783843 66.854816 504.648838 63.0480242 499.588044 63.0480242 494.52725 63.0480242 491.392245 66.854816 491.392245 71.5125378zM515.307855 71.5125378C515.307855 65.1977419 519.83122 60.6295917 526.190801 60.6295917 532.550383 60.6295917 537.073747 65.1977419 537.073747 71.5125378 537.073747 77.8273336 532.550383 82.3954838 526.190801 82.3954838 519.83122 82.3954838 515.307855 77.8273336 515.307855 71.5125378zM517.995002 71.5125378C517.995002 76.1702595 521.130008 79.9770514 526.190801 79.9770514 531.251595 79.9770514 534.3866 76.1702595 534.3866 71.5125378 534.3866 66.854816 531.251595 63.0480242 526.190801 63.0480242 521.130008 63.0480242 517.995002 66.854816 517.995002 71.5125378zM543.522901 81.8580544L543.522901 48 546.210048 48 546.210048 81.8580544 543.522901 81.8580544zM553.823631 81.8580544L553.823631 48 556.510779 48 556.510779 70.5720363 566.721938 61.2118069 570.663087 61.2118069 560.00407 70.6616078 571.917089 81.8580544 567.841583 81.8580544 556.510779 70.9303226 556.510779 81.8580544 553.823631 81.8580544zM575.813452 81.8580544L575.813452 61.1670212 578.5006 61.1670212 578.5006 81.8580544 575.813452 81.8580544zM575.141666 52.9712223C575.141666 51.8515776 576.037381 50.9558619 577.157026 50.9558619 578.276671 50.9558619 579.172386 51.8515776 579.172386 52.9712223 579.172386 54.0908669 578.276671 54.9865827 577.157026 54.9865827 576.037381 54.9865827 575.141666 54.0908669 575.141666 52.9712223zM596.235771 61.1670212L596.235771 63.5854536 590.324047 63.5854536 590.324047 77.0659753C590.324047 78.9021925 591.398906 79.9770514 593.190338 79.9770514 594.220411 79.9770514 595.29527 79.6635509 596.235771 79.2604788L596.4597 81.6789113C595.474413 82.0371975 593.996482 82.3954838 592.966409 82.3954838 589.114831 82.3954838 587.6369 80.0218372 587.6369 77.0659753L587.6369 63.5854536 583.158321 63.5854536 583.158321 61.1670212 587.6369 61.1670212 587.6369 55.2105116 590.324047 55.2105116 590.324047 61.1670212 596.235771 61.1670212zM53.2371347 79.9607034L53.2371347 71.3934852 53.0101106 71.3934852C48.8101661 78.1626453 39.842717 81.229921 32.010388 81.229921 15.891682 81.229921 4.42696855 70.4415721 4.42696855 55.5282663 4.42696855 40.6149605 15.891682 29.8266116 32.010388 29.8266116 39.842717 29.8266116 48.8101661 32.8938873 53.0101106 39.6630473L53.2371347 39.6630473 53.2371347 0 60.0478555 0 60.0478555 79.9607034 53.2371347 79.9607034zM53.9182068 55.5282663C53.9182068 44.5283812 44.3831976 35.5380904 32.010388 35.5380904 19.1835304 35.5380904 11.2376894 44.5283812 11.2376894 55.5282663 11.2376894 66.5281514 19.1835304 75.5184421 32.010388 75.5184421 44.3831976 75.5184421 53.9182068 66.5281514 53.9182068 55.5282663zM117.484935 47.4898887L117.484935 59.441687C117.484935 68.9608183 117.711959 74.3549928 118.506543 79.9607034L112.14987 79.9607034C111.695822 77.5280365 111.468798 74.7780653 111.468798 72.028094L111.241774 72.028094C107.382365 78.2684134 101.706765 81.229921 92.8528276 81.229921 83.8853785 81.229921 74.3503693 77.104964 74.3503693 66.7396877 74.3503693 51.8263819 93.0798517 50.3456281 103.409445 50.3456281L111.355286 50.3456281 111.355286 47.3841206C111.355286 38.9226705 104.998613 35.5380904 96.5987241 35.5380904 90.4690753 35.5380904 85.2475227 37.3361486 80.5935301 41.038033L76.6206096 36.7015398C81.6151382 32.2592785 89.7880032 29.8266116 96.5987241 29.8266116 109.31207 29.8266116 117.484935 35.1150179 117.484935 47.4898887zM111.355286 55.4224982L103.863493 55.4224982C92.5122916 55.4224982 81.1610902 58.0667013 81.1610902 66.4223833 81.1610902 72.4511665 87.4042509 75.5184421 93.0798517 75.5184421 107.609389 75.5184421 111.355286 66.8454558 111.355286 58.7013101L111.355286 55.4224982zM161.300572 31.0958291L161.300572 36.8073079 146.316986 36.8073079 146.316986 68.6435139C146.316986 72.9800071 149.041275 75.5184421 153.581755 75.5184421 156.192532 75.5184421 158.91682 74.7780653 161.300572 73.8261521L161.868132 79.5376309C159.370868 80.383776 155.624971 81.229921 153.014195 81.229921 143.252162 81.229921 139.506265 75.6242103 139.506265 68.6435139L139.506265 36.8073079 128.155064 36.8073079 128.155064 31.0958291 139.506265 31.0958291 139.506265 17.0286683 146.316986 17.0286683 146.316986 31.0958291 161.300572 31.0958291zM214.197171 47.4898887L214.197171 59.441687C214.197171 68.9608183 214.424195 74.3549928 215.218779 79.9607034L208.862106 79.9607034C208.408058 77.5280365 208.181034 74.7780653 208.181034 72.028094L207.95401 72.028094C204.094602 78.2684134 198.419001 81.229921 189.565064 81.229921 180.597615 81.229921 171.062605 77.104964 171.062605 66.7396877 171.062605 51.8263819 189.792088 50.3456281 200.121681 50.3456281L208.067522 50.3456281 208.067522 47.3841206C208.067522 38.9226705 201.710849 35.5380904 193.31096 35.5380904 187.181311 35.5380904 181.959759 37.3361486 177.305766 41.038033L173.332846 36.7015398C178.327374 32.2592785 186.500239 29.8266116 193.31096 29.8266116 206.024306 29.8266116 214.197171 35.1150179 214.197171 47.4898887zM208.067522 55.4224982L200.575729 55.4224982C189.224528 55.4224982 177.873326 58.0667013 177.873326 66.4223833 177.873326 72.4511665 184.116487 75.5184421 189.792088 75.5184421 204.321626 75.5184421 208.067522 66.8454558 208.067522 58.7013101L208.067522 55.4224982zM230.883437 79.9607034L230.883437 0 237.694158 0 237.694158 39.6630473 237.921182 39.6630473C242.121126 32.8938873 251.088575 29.8266116 258.920904 29.8266116 275.03961 29.8266116 286.504324 40.6149605 286.504324 55.5282663 286.504324 70.4415721 275.03961 81.229921 258.920904 81.229921 251.088575 81.229921 242.121126 78.1626453 237.921182 71.3934852L237.694158 71.3934852 237.694158 79.9607034 230.883437 79.9607034zM237.013086 55.5282663C237.013086 66.5281514 246.548095 75.5184421 258.920904 75.5184421 271.747762 75.5184421 279.693603 66.5281514 279.693603 55.5282663 279.693603 44.5283812 271.747762 35.5380904 258.920904 35.5380904 246.548095 35.5380904 237.013086 44.5283812 237.013086 55.5282663zM342.465747 47.4898887L342.465747 59.441687C342.465747 68.9608183 342.692771 74.3549928 343.487355 79.9607034L337.130682 79.9607034C336.676634 77.5280365 336.44961 74.7780653 336.44961 72.028094L336.222586 72.028094C332.363178 78.2684134 326.687577 81.229921 317.83364 81.229921 308.866191 81.229921 299.331181 77.104964 299.331181 66.7396877 299.331181 51.8263819 318.060664 50.3456281 328.390257 50.3456281L336.336098 50.3456281 336.336098 47.3841206C336.336098 38.9226705 329.979425 35.5380904 321.579536 35.5380904 315.449888 35.5380904 310.228335 37.3361486 305.574342 41.038033L301.601422 36.7015398C306.59595 32.2592785 314.768815 29.8266116 321.579536 29.8266116 334.292882 29.8266116 342.465747 35.1150179 342.465747 47.4898887zM336.336098 55.4224982L328.844305 55.4224982C317.493104 55.4224982 306.141902 58.0667013 306.141902 66.4223833 306.141902 72.4511665 312.385063 75.5184421 318.060664 75.5184421 332.590202 75.5184421 336.336098 66.8454558 336.336098 58.7013101L336.336098 55.4224982zM354.725044 71.2877171L360.741181 67.4800645C363.578982 72.6627027 369.822142 75.5184421 375.951791 75.5184421 381.854416 75.5184421 387.984065 72.1338621 387.984065 66.5281514 387.984065 53.0955994 356.881773 62.5089626 356.881773 43.8937724 356.881773 34.374641 366.189758 29.8266116 374.816671 29.8266116 383.330072 29.8266116 389.913769 32.7881191 393.319129 39.0284386L387.18948 42.4130186C384.578704 37.9707573 380.94632 35.5380904 374.816671 35.5380904 369.935654 35.5380904 363.692494 38.2880617 363.692494 43.3649318 363.692494 56.5859475 394.794785 46.3264393 394.794785 66.1050789 394.794785 76.1530509 385.827336 81.229921 375.838279 81.229921 366.87083 81.229921 358.811477 78.0568772 354.725044 71.2877171zM450.30216 66.8454558L455.296689 70.7588765C449.961624 78.1626453 441.902271 81.229921 432.594286 81.229921 416.589092 81.229921 406.032475 70.5473402 406.032475 55.4224982 406.032475 40.8264967 416.929628 29.8266116 432.25375 29.8266116 448.372456 29.8266116 456.885857 41.3553374 456.885857 52.6725269L456.885857 57.1147882 412.843196 57.1147882C412.843196 62.4031945 416.816116 75.5184421 432.707798 75.5184421 439.632031 75.5184421 446.8968 72.1338621 450.30216 66.8454558zM412.843196 51.4033094L450.075136 51.4033094C450.075136 42.730323 442.015783 35.5380904 431.913214 35.5380904 417.04314 35.5380904 412.843196 48.8648743 412.843196 51.4033094zM21.4537707 162.630044L0 113.765169 7.71881697 113.765169 25.1996672 155.755115 42.2264693 113.765169 49.1507022 113.765169 28.4915156 162.630044 21.4537707 162.630044zM61.0694636 162.630044L61.0694636 113.765169 67.8801845 113.765169 67.8801845 162.630044 61.0694636 162.630044zM59.3667834 94.4096021C59.3667834 91.7653989 61.6370237 89.6500364 64.4748241 89.6500364 67.3126244 89.6500364 69.5828647 91.7653989 69.5828647 94.4096021 69.5828647 97.0538052 67.3126244 99.1691678 64.4748241 99.1691678 61.6370237 99.1691678 59.3667834 97.0538052 59.3667834 94.4096021zM81.2746022 153.957057L87.2907389 150.149405C90.1285393 155.332043 96.3717001 158.187782 102.501349 158.187782 108.403974 158.187782 114.533622 154.803202 114.533622 149.197491 114.533622 135.764939 83.4313304 145.178303 83.4313304 126.563112 83.4313304 117.043981 92.7393156 112.495952 101.366229 112.495952 109.87963 112.495952 116.463327 115.457459 119.868687 121.697779L113.739038 125.082359C111.128262 120.640097 107.495877 118.20743 101.366229 118.20743 96.4852121 118.20743 90.2420513 120.957402 90.2420513 126.034272 90.2420513 139.255288 121.344343 128.995779 121.344343 148.774419 121.344343 158.822391 112.376894 163.899261 102.387837 163.899261 93.4203877 163.899261 85.3610347 160.726217 81.2746022 153.957057zM179.916543 113.765169L179.916543 148.880187C179.916543 152.476303 180.484103 160.091608 180.484103 162.630044L173.673382 162.630044C173.55987 159.033927 173.446358 155.014738 173.219334 154.062825L172.878798 154.062825C170.154509 159.457 163.4573 163.899261 154.943899 163.899261 138.598169 163.899261 134.965785 153.533985 134.965785 142.851404L134.965785 113.765169 141.776506 113.765169 141.776506 142.5341C141.776506 150.466709 144.160258 158.187782 154.943899 158.187782 165.046469 158.187782 173.105822 151.630158 173.105822 138.197606L173.105822 113.765169 179.916543 113.765169zM239.396838 130.159229L239.396838 142.111027C239.396838 151.630158 239.623862 157.024333 240.418446 162.630044L234.061773 162.630044C233.607725 160.197377 233.380701 157.447405 233.380701 154.697434L233.153677 154.697434C229.294269 160.937753 223.618668 163.899261 214.764731 163.899261 205.797282 163.899261 196.262273 159.774304 196.262273 149.409028 196.262273 134.495722 214.991755 133.014968 225.321348 133.014968L233.267189 133.014968 233.267189 130.053461C233.267189 121.592011 226.910516 118.20743 218.510627 118.20743 212.380979 118.20743 207.159426 120.005489 202.505433 123.707373L198.532513 119.37088C203.527041 114.928619 211.699907 112.495952 218.510627 112.495952 231.223973 112.495952 239.396838 117.784358 239.396838 130.159229zM233.267189 138.091838L225.775396 138.091838C214.424195 138.091838 203.072993 140.736041 203.072993 149.091723 203.072993 155.120507 209.316154 158.187782 214.991755 158.187782 229.521293 158.187782 233.267189 149.514796 233.267189 141.37065L233.267189 138.091838zM258.69388 162.630044L258.69388 82.6693401 265.504601 82.6693401 265.504601 162.630044 258.69388 162.630044zM285.936764 162.630044L285.936764 113.765169 292.747485 113.765169 292.747485 162.630044 285.936764 162.630044zM284.234084 94.4096021C284.234084 91.7653989 286.504324 89.6500364 289.342124 89.6500364 292.179925 89.6500364 294.450165 91.7653989 294.450165 94.4096021 294.450165 97.0538052 292.179925 99.1691678 289.342124 99.1691678 286.504324 99.1691678 284.234084 97.0538052 284.234084 94.4096021zM306.02839 162.630044L306.02839 158.822391 337.471218 119.476648 307.617559 119.476648 307.617559 113.765169 346.892715 113.765169 346.892715 117.572822 315.5634 156.918565 348.25486 156.918565 348.25486 162.630044 306.02839 162.630044zM401.151458 130.159229L401.151458 142.111027C401.151458 151.630158 401.378482 157.024333 402.173066 162.630044L395.816394 162.630044C395.362346 160.197377 395.135321 157.447405 395.135321 154.697434L394.908297 154.697434C391.048889 160.937753 385.373288 163.899261 376.519351 163.899261 367.551902 163.899261 358.016893 159.774304 358.016893 149.409028 358.016893 134.495722 376.746375 133.014968 387.075968 133.014968L395.021809 133.014968 395.021809 130.053461C395.021809 121.592011 388.665137 118.20743 380.265248 118.20743 374.135599 118.20743 368.914046 120.005489 364.260054 123.707373L360.287133 119.37088C365.281662 114.928619 373.454527 112.495952 380.265248 112.495952 392.978593 112.495952 401.151458 117.784358 401.151458 130.159229zM395.021809 138.091838L387.530017 138.091838C376.178815 138.091838 364.827614 140.736041 364.827614 149.091723 364.827614 155.120507 371.070774 158.187782 376.746375 158.187782 391.275913 158.187782 395.021809 149.514796 395.021809 141.37065L395.021809 138.091838zM444.967096 113.765169L444.967096 119.476648 429.98351 119.476648 429.98351 151.312854C429.98351 155.649347 432.707798 158.187782 437.248279 158.187782 439.859055 158.187782 442.583343 157.447405 444.967096 156.495492L445.534656 162.206971C443.037391 163.053116 439.291495 163.899261 436.680719 163.899261 426.918685 163.899261 423.172789 158.29355 423.172789 151.312854L423.172789 119.476648 411.821588 119.476648 411.821588 113.765169 423.172789 113.765169 423.172789 99.6980084 429.98351 99.6980084 429.98351 113.765169 444.967096 113.765169zM458.248001 162.630044L458.248001 113.765169 465.058722 113.765169 465.058722 162.630044 458.248001 162.630044zM456.545321 94.4096021C456.545321 91.7653989 458.815561 89.6500364 461.653362 89.6500364 464.491162 89.6500364 466.761402 91.7653989 466.761402 94.4096021 466.761402 97.0538052 464.491162 99.1691678 461.653362 99.1691678 458.815561 99.1691678 456.545321 97.0538052 456.545321 94.4096021zM481.404452 138.197606C481.404452 123.284301 492.869166 112.495952 508.987872 112.495952 525.106578 112.495952 536.571291 123.284301 536.571291 138.197606 536.571291 153.110912 525.106578 163.899261 508.987872 163.899261 492.869166 163.899261 481.404452 153.110912 481.404452 138.197606zM488.215173 138.197606C488.215173 149.197491 496.161014 158.187782 508.987872 158.187782 521.814729 158.187782 529.76057 149.197491 529.76057 138.197606 529.76057 127.197721 521.814729 118.20743 508.987872 118.20743 496.161014 118.20743 488.215173 127.197721 488.215173 138.197606zM551.781901 162.630044L551.781901 127.515026C551.781901 123.918909 551.214341 116.303604 551.214341 113.765169L558.025062 113.765169C558.138574 117.361285 558.252086 121.380474 558.47911 122.332387L558.819646 122.332387C561.543934 116.938213 568.241143 112.495952 576.754544 112.495952 593.100274 112.495952 596.732659 122.861228 596.732659 133.543809L596.732659 162.630044 589.921938 162.630044 589.921938 133.861113C589.921938 125.928504 587.538186 118.20743 576.754544 118.20743 566.651975 118.20743 558.592622 124.765054 558.592622 138.197606L558.592622 162.630044 551.781901 162.630044z"/>
    </g>
  </g>
</svg>
