<svg xmlns="http://www.w3.org/2000/svg" width="282" height="115" viewBox="0 0 282 115">
  <g fill="none">
    <path fill="#000" d="M120.2,53.6 C120.2,35.1 108.5,23.2 88.9,23.2 C71.6,23.2 59.8,32.9 57.4,49.4 L73.5,84.8 C78,86.9 83.4,88.1 89.4,88.1 C107.1,88.1 117,80 119.7,66.6 L98.8,66.6 C97.5,69.8 94.9,71.2 89.8,71.2 C82.1,71.2 78.3,66.8 77.4,58.4 L120.2,58.4 L120.2,53.6 Z M78.2,46 C79.8,40.8 82.8,37.9 88.9,37.9 C94.5,37.9 97.9,40.6 99,46 L78.2,46 Z"/>
    <polygon fill="#000" points="44.4 86.5 31.9 60.2 28.6 60.2 21.5 68.4 21.5 86.5 .7 86.5 .7 .1 21.5 .1 21.5 45 40.5 24.7 63.2 24.7 45.7 43.8 65.8 86.5"/>
    <g fill="#000" transform="translate(0 98)">
      <path d="M5.9.6C8.6.6 10 2 10 4.2 10 6.4 8.5 7.8 5.9 7.8L1.9 7.8 1.9 13 .7 13 .7.5 5.9.6zM5.7 6.8C8 6.8 8.9 5.8 8.9 4.2 8.9 2.6 8.1 1.6 5.7 1.6L2 1.6 2 6.8 5.7 6.8zM16.4 5.4L15.7 5.4C14 5.4 12.8 6.5 12.8 8.5L12.8 13.1 11.7 13.1 11.7 4.3 12.8 4.3 12.8 5.4 13.2 5.4C13.7 4.8 14.6 4.3 15.8 4.3L16.4 4.3 16.4 5.4zM25.3 8.5L18.5 8.5 18.5 8.7C18.5 10.9 19.7 12.3 21.6 12.3 23 12.3 23.8 11.7 24.1 10.7L25.2 10.7C24.9 12.1 23.7 13.2 21.6 13.2 18.9 13.2 17.4 11.1 17.4 8.5 17.4 5.8 18.9 4 21.6 4 24.1 4 25.4 6 25.4 8.1L25.3 8.5zM18.5 7.6L24.1 7.6C24 6.4 23.1 5.1 21.4 5.1 19.7 5.1 18.7 6.3 18.5 7.6zM26.4 10.7L27.5 10.7C27.7 11.8 28.6 12.4 30.1 12.4 31.6 12.4 32.6 11.8 32.6 10.7 32.6 9.8 32.1 9.3 30.9 9.1 30.5 9 29.4 8.9 28.8 8.7 27.6 8.5 26.8 7.8 26.8 6.6 26.8 5.2 27.9 4.1 30.2 4.1 32.2 4.1 33.4 5.1 33.6 6.5L32.5 6.5C32.4 5.5 31.4 5 30.2 5 28.8 5 28 5.5 28 6.4 28 7.2 28.5 7.5 29.5 7.7 29.8 7.8 30.1 7.8 30.4 7.8L31.5 8C33 8.3 33.9 9 33.9 10.5 33.9 11.9 32.7 13.2 30.4 13.2 27.8 13.3 26.6 12.3 26.4 10.7zM42.8 8.5L36 8.5 36 8.7C36 10.9 37.2 12.3 39.1 12.3 40.5 12.3 41.3 11.7 41.6 10.7L42.7 10.7C42.4 12.1 41.2 13.2 39.1 13.2 36.4 13.2 34.9 11.1 34.9 8.5 34.9 5.8 36.4 4 39.1 4 41.6 4 42.9 6 42.9 8.1L42.9 8.5 42.8 8.5zM36.1 7.6L41.7 7.6C41.6 6.4 40.7 5.1 39 5.1 37.2 5.1 36.3 6.3 36.1 7.6zM49.3 5.4L48.6 5.4C46.9 5.4 45.7 6.5 45.7 8.5L45.7 13.1 44.6 13.1 44.6 4.3 45.7 4.3 45.7 5.4 46.1 5.4C46.6 4.8 47.5 4.3 48.7 4.3L49.3 4.3 49.3 5.4z"/>
      <polygon points="50.4 4.3 51.5 4.3 54.2 12 54.9 12 57.5 4.3 58.7 4.3 55.6 13.1 53.4 13.1"/>
      <path d="M60.2 1.7L60.2.3 61.4.3 61.4 1.7 60.2 1.7zM61.3 13.1L60.2 13.1 60.2 4.3 61.3 4.3 61.3 13.1zM70.3 13.1L70.3 7.7C70.3 5.9 69.5 5.1 67.9 5.1 66.2 5.1 65 6.6 65 8.3L65 13.1 63.9 13.1 63.9 4.3 65 4.3 65 5.3 65.4 5.3C65.9 4.6 66.9 4.1 68.1 4.1 70.2 4.1 71.5 5.4 71.5 7.5L71.5 13.2 70.3 13.1zM81.3 4.3L81.3 12.6C81.3 15.1 79.9 16.7 77.3 16.7 75.1 16.7 73.7 15.8 73.4 14.1L74.5 14.1C74.8 15.3 75.8 15.7 77.3 15.7 79.3 15.7 80.2 14.6 80.2 12.6L80.2 11.8 79.8 11.8C79.3 12.4 78.4 13 77 13 74.6 13 73.1 11.1 73.1 8.5 73.1 5.9 74.6 4 77 4 78.4 4 79.3 4.6 79.8 5.2L80.2 5.2 80.2 4.2 81.3 4.2 81.3 4.3zM80.2 8.6C80.2 6.8 79.3 5.1 77.2 5.1 75.3 5.1 74.3 6.5 74.3 8.6 74.3 10.7 75.4 12.1 77.2 12.1 79.3 12.1 80.2 10.5 80.2 8.6zM92.2 4.3L92.2 5.3 89.9 5.3 89.9 10.6C89.9 11.6 90.3 12.1 91.6 12.1L92.2 12.1 92.2 13.1 91.6 13.1C89.7 13.1 88.8 12.5 88.8 10.7L88.8 5.3 87.2 5.3 87.2 4.3 88.8 4.3 88.8 1.6 89.9 1.6 89.9 4.3 92.2 4.3zM100.6 13.1L100.6 7.7C100.6 5.9 99.8 5.1 98.2 5.1 96.5 5.1 95.3 6.6 95.3 8.3L95.3 13.1 94.2 13.1 94.2.3 95.3.3 95.3 5.3 95.7 5.3C96.2 4.6 97.2 4.1 98.4 4.1 100.5 4.1 101.8 5.4 101.8 7.5L101.8 13.2 100.6 13.1zM111.4 8.5L104.6 8.5 104.6 8.7C104.6 10.9 105.8 12.3 107.7 12.3 109.1 12.3 109.9 11.7 110.2 10.7L111.3 10.7C111 12.1 109.8 13.2 107.7 13.2 105 13.2 103.5 11.1 103.5 8.5 103.5 5.8 105 4 107.7 4 110.2 4 111.5 6 111.5 8.1L111.5 8.5 111.4 8.5zM104.6 7.6L110.2 7.6C110.1 6.4 109.2 5.1 107.5 5.1 105.8 5.1 104.8 6.3 104.6 7.6zM119.4 5.3L119.4 13.1 118.3 13.1 118.3 5.3 116.7 5.3 116.7 4.3 118.3 4.3 118.3 3.1C118.3 1.2 119.2.3 121.1.3L121.8.3 121.8 1.3 121.1 1.3C119.8 1.3 119.4 2.1 119.4 3.1L119.4 4.3 121.9 4.3 121.9 5.3 119.4 5.3zM124.3 4.3L124.3 9.7C124.3 11.5 125.1 12.3 126.7 12.3 128.4 12.3 129.6 10.8 129.6 9.1L129.6 4.3 130.7 4.3 130.7 13.1 129.6 13.1 129.6 12.1 129.2 12.1C128.7 12.8 127.7 13.3 126.5 13.3 124.4 13.3 123.1 12 123.1 9.9L123.1 4.2 124.3 4.3zM137.3 4.3L137.3 5.3 135 5.3 135 10.6C135 11.6 135.4 12.1 136.7 12.1L137.3 12.1 137.3 13.1 136.7 13.1C134.8 13.1 133.9 12.5 133.9 10.7L133.9 5.3 132.3 5.3 132.3 4.3 133.9 4.3 133.9 1.6 135 1.6 135 4.3 137.3 4.3zM140.2 4.3L140.2 9.7C140.2 11.5 141 12.3 142.6 12.3 144.3 12.3 145.5 10.8 145.5 9.1L145.5 4.3 146.6 4.3 146.6 13.1 145.5 13.1 145.5 12.1 145.1 12.1C144.6 12.8 143.6 13.3 142.4 13.3 140.3 13.3 139 12 139 9.9L139 4.2 140.2 4.3zM153.7 5.4L153 5.4C151.3 5.4 150.1 6.5 150.1 8.5L150.1 13.1 149 13.1 149 4.3 150.1 4.3 150.1 5.4 150.5 5.4C151 4.8 151.9 4.3 153.1 4.3L153.7 4.3 153.7 5.4zM162.6 8.5L155.8 8.5 155.8 8.7C155.8 10.9 157 12.3 158.9 12.3 160.3 12.3 161.1 11.7 161.4 10.7L162.5 10.7C162.2 12.1 161 13.2 158.9 13.2 156.2 13.2 154.7 11.1 154.7 8.5 154.7 5.8 156.2 4 158.9 4 161.4 4 162.7 6 162.7 8.1L162.7 8.5 162.6 8.5zM155.9 7.6L161.5 7.6C161.4 6.4 160.5 5.1 158.8 5.1 157 5.1 156 6.3 155.9 7.6z"/>
    </g>
    <path fill="#000" d="M180.7 66.5L165.9 66.5C164.6 69.7 162 71.1 156.9 71.1 149.2 71.1 145.4 66.7 144.5 58.3L180.7 58.3 180.7 33.3C175.4 26.8 166.9 23.1 156 23.1 136.6 23.1 124 35.3 124 55.5 124 75.8 136.8 87.9 156.4 87.9 167.5 87.9 175.5 84.7 180.6 79L180.7 66.5zM156 37.9C161.6 37.9 165 40.6 166.1 46L145.3 46C146.9 40.8 150 37.9 156 37.9zM212.8 81.3L209.5 81.3 209.5 111.1 188.8 111.1 188.8 24.7 208.8 24.7 208.8 29.9 212.1 29.9C215.4 25.7 220.2 23.1 228.3 23.1 244.5 23.1 254 36.6 254 55.5 254 74.4 244.1 87.9 228.3 87.9 220.6 88 216 85.4 212.8 81.3zM208.7 55.6C208.7 63.9 212.5 71.2 221.2 71.2 229.9 71.2 233.3 63.9 233.3 55.6 233.3 47.3 229.8 40 221.2 40 212.5 40 208.7 47.3 208.7 55.6z"/>
    <path fill="#E43730" d="M276.1,67.1 C277.8,68.1 279.2,69.5 280.3,71.3 C281.3,73 281.9,74.9 281.9,76.9 C281.9,78.9 281.4,80.8 280.3,82.6 C279.2,84.4 277.9,85.7 276.1,86.8 C274.3,87.9 272.5,88.3 270.5,88.3 C268.5,88.3 266.6,87.8 264.8,86.8 C263,85.8 261.7,84.4 260.6,82.6 C259.6,80.8 259.1,78.9 259.1,76.9 C259.1,74.9 259.6,73 260.6,71.3 C261.6,69.6 263,68.2 264.8,67.1 C266.6,66 268.5,65.5 270.5,65.5 C272.5,65.5 274.4,66 276.1,67.1 Z"/>
  </g>
</svg>
